<?xml version="1.0" standalone="no"?>
<!DOCTYPE svg PUBLIC "-//W3C//DTD SVG 20010904//EN"
 "http://www.w3.org/TR/2001/REC-SVG-20010904/DTD/svg10.dtd">
<svg version="1.0" xmlns="http://www.w3.org/2000/svg"
 width="1160.000000pt" height="1160.000000pt" viewBox="0 0 1160.000000 1160.000000"
 preserveAspectRatio="xMidYMid meet">
<metadata>
Created by potrace 1.14, written by Peter Selinger 2001-2017
</metadata>
<g transform="translate(0.000000,1160.000000) scale(0.100000,-0.100000)"
fill="#000000" stroke="none">
<path d="M5585 10780 c-239 -49 -447 -158 -614 -322 -532 -522 -473 -1387 124
-1832 117 -88 306 -178 422 -201 256 -52 469 -43 678 27 434 145 755 534 811
983 8 61 10 232 4 295 -12 125 -75 328 -134 435 -151 270 -395 478 -670 570
-135 45 -213 58 -376 60 -118 2 -177 -2 -245 -15z"/>
<path d="M3135 10305 c-290 -62 -458 -285 -458 -605 0 -65 12 -280 18 -324 2
-17 7 -53 10 -81 4 -27 9 -63 11 -80 2 -16 6 -41 9 -55 3 -14 8 -41 11 -60 3
-19 17 -80 31 -135 14 -55 26 -107 28 -115 11 -53 86 -265 132 -373 80 -186
151 -320 262 -492 40 -62 156 -222 170 -235 3 -3 26 -30 51 -60 138 -170 356
-373 555 -518 6 -4 27 -19 47 -34 20 -16 39 -28 42 -28 2 0 38 -22 79 -49 185
-123 489 -262 732 -335 66 -20 134 -41 150 -46 47 -14 239 -51 340 -66 22 -3
51 -7 65 -10 136 -24 650 -24 775 0 11 2 45 7 75 11 62 7 236 41 290 55 19 5
46 11 60 14 14 3 41 10 60 16 19 6 42 13 50 15 150 35 526 200 700 308 71 43
225 145 250 164 330 254 584 528 789 851 124 196 271 517 337 738 90 301 144
662 138 929 -3 138 -17 204 -65 303 -100 207 -304 318 -564 307 -280 -11 -464
-144 -548 -395 -19 -57 -26 -114 -32 -275 -3 -71 -7 -139 -9 -150 -2 -11 -7
-45 -11 -75 -52 -406 -277 -837 -582 -1117 -115 -106 -118 -109 -238 -188
-194 -129 -414 -226 -620 -271 -180 -40 -262 -49 -460 -49 -193 0 -265 6 -403
35 -443 92 -829 325 -1097 661 -33 40 -62 76 -65 79 -23 21 -136 214 -182 310
-28 60 -98 243 -104 274 -2 10 -10 42 -18 70 -33 119 -56 290 -61 456 -6 195
-31 289 -109 403 -69 101 -180 178 -310 214 -70 19 -257 24 -331 8z"/>
<path d="M1909 6616 c-2 -2 -42 -6 -89 -10 -47 -3 -94 -8 -105 -10 -11 -2 -45
-7 -75 -12 -30 -4 -57 -8 -60 -9 -3 -1 -27 -5 -55 -9 -154 -23 -473 -121 -665
-202 -247 -106 -600 -310 -698 -404 -97 -93 -151 -205 -159 -332 -10 -142 25
-259 120 -398 109 -161 197 -236 327 -280 78 -26 196 -28 285 -5 69 18 199 79
225 105 37 38 220 147 333 199 136 63 307 121 405 137 15 2 41 7 57 11 33 7
31 7 130 19 85 10 325 10 415 0 387 -44 766 -208 1070 -465 89 -75 228 -220
292 -306 33 -44 66 -88 74 -98 8 -9 14 -19 14 -22 0 -3 16 -30 36 -61 116
-181 225 -497 249 -719 4 -33 8 -71 11 -85 5 -30 5 -293 0 -335 -2 -16 -7 -55
-10 -85 -17 -131 -66 -317 -128 -480 -27 -72 -131 -267 -189 -353 -138 -207
-339 -412 -524 -537 -270 -183 -320 -503 -124 -792 128 -189 263 -266 476
-274 119 -4 183 12 328 82 167 81 492 373 680 609 21 28 42 52 45 55 28 27
170 236 239 353 95 163 222 447 262 588 7 24 14 49 15 54 16 54 55 205 59 225
15 74 34 192 40 240 3 30 8 62 10 70 24 91 24 615 0 762 -2 13 -6 43 -9 68 -3
25 -11 72 -17 105 -5 33 -12 74 -15 90 -19 110 -96 372 -150 513 -111 285
-290 610 -442 800 -421 526 -982 889 -1692 1096 -69 20 -134 38 -145 40 -11 3
-51 11 -90 20 -38 8 -97 18 -130 21 -33 4 -73 9 -90 12 -38 6 -530 14 -536 9z"/>
<path d="M9289 6616 c-2 -2 -42 -6 -89 -10 -97 -8 -140 -13 -225 -26 -97 -16
-117 -20 -190 -36 -38 -9 -79 -18 -91 -20 -12 -2 -79 -23 -150 -46 -71 -23
-133 -43 -139 -44 -30 -7 -226 -94 -326 -145 -146 -74 -320 -182 -414 -257 -5
-4 -26 -19 -45 -32 -19 -14 -78 -61 -130 -105 -379 -320 -709 -763 -885 -1190
-94 -227 -178 -526 -199 -710 -3 -28 -8 -59 -10 -70 -21 -107 -28 -498 -13
-670 39 -437 191 -921 405 -1287 12 -21 32 -55 43 -75 32 -56 165 -249 223
-323 161 -205 422 -460 611 -598 6 -4 26 -19 45 -33 46 -33 135 -75 235 -110
73 -26 89 -28 190 -25 61 2 131 11 158 20 172 56 300 186 361 368 23 69 27 93
31 192 5 112 -14 208 -60 302 -45 91 -93 145 -218 243 -138 107 -204 173 -357
357 -47 57 -148 222 -200 329 -74 154 -141 351 -166 495 -3 14 -7 32 -9 40 -2
8 -7 47 -11 85 -3 39 -8 73 -10 77 -7 11 -6 306 1 373 6 52 34 216 49 281 49
219 191 520 330 698 77 99 229 252 314 316 19 14 40 31 47 38 8 7 60 42 117
78 243 154 479 241 818 300 74 12 406 12 500 -1 306 -42 555 -131 810 -288
161 -99 264 -132 415 -132 143 0 223 21 332 87 90 55 148 123 172 206 79 264
22 550 -143 716 -133 134 -461 320 -767 434 -185 70 -428 135 -584 157 -23 3
-50 7 -61 9 -11 2 -47 7 -79 11 -33 4 -71 9 -85 12 -29 6 -545 14 -551 9z"/>
<path d="M2119 4776 c-2 -2 -33 -6 -69 -9 -115 -10 -258 -53 -385 -116 -202
-100 -348 -228 -474 -414 -81 -119 -165 -332 -186 -472 -10 -65 -12 -296 -3
-360 24 -181 101 -376 206 -525 42 -59 58 -79 119 -145 54 -60 211 -185 232
-185 5 0 11 -4 13 -9 6 -16 194 -100 283 -126 182 -54 414 -63 595 -24 599
129 1012 699 946 1308 -9 81 -33 196 -46 222 -6 10 -9 19 -6 19 9 0 -54 143
-96 220 -160 294 -475 526 -798 589 -30 6 -66 14 -80 16 -30 7 -246 16 -251
11z"/>
<path d="M9285 4769 c-122 -17 -209 -39 -304 -77 -239 -94 -453 -276 -590
-499 -68 -111 -140 -310 -159 -441 -9 -62 -9 -294 0 -357 58 -397 317 -745
684 -917 162 -75 307 -108 498 -112 451 -10 889 258 1089 665 69 141 96 233
122 404 15 99 6 256 -21 393 -96 475 -519 870 -1004 937 -68 10 -259 12 -315
4z"/>
</g>
</svg>
