<?xml version="1.0" standalone="no"?>
<!DOCTYPE svg PUBLIC "-//W3C//DTD SVG 20010904//EN"
 "http://www.w3.org/TR/2001/REC-SVG-20010904/DTD/svg10.dtd">
<svg version="1.0" xmlns="http://www.w3.org/2000/svg"
 width="640.000000pt" height="144.000000pt" viewBox="0 0 640.000000 144.000000"
 preserveAspectRatio="xMidYMid meet">

<g transform="translate(0.000000,144.000000) scale(0.100000,-0.100000)"
fill="#94a3b8" stroke="none">
<path d="M40 720 l0 -680 680 0 680 0 0 680 0 680 -680 0 -680 0 0 -680z"/>
<path d="M1830 719 l0 -680 408 3 c440 4 448 5 564 64 215 109 247 442 56 583
l-47 35 44 47 c78 83 90 117 90 249 0 102 -3 121 -25 165 -32 66 -93 125 -162
159 -97 47 -177 55 -570 56 l-358 0 0 -681z m720 396 c96 -56 87 -208 -16
-251 -24 -10 -79 -14 -189 -14 l-155 0 0 146 0 146 163 -3 c141 -4 167 -7 197
-24z m-39 -525 c76 -15 111 -51 116 -122 5 -66 -18 -114 -67 -143 -31 -17 -56
-20 -202 -23 l-168 -4 0 151 0 151 134 0 c73 0 158 -5 187 -10z"/>
<path d="M3210 720 l0 -680 175 0 175 0 0 275 c0 213 3 275 13 275 6 0 117
-124 246 -275 l233 -275 219 0 c120 0 219 2 219 5 0 3 -139 162 -309 352
l-309 346 108 136 c59 75 176 222 259 326 l150 190 -202 3 c-202 3 -202 3
-222 -21 -11 -13 -102 -135 -203 -271 -101 -136 -187 -244 -192 -241 -6 4 -10
113 -10 271 l0 264 -175 0 -175 0 0 -680z"/>
<path d="M4500 1397 c0 -4 247 -1200 266 -1284 l15 -73 220 0 c120 0 219 2
219 4 0 12 202 901 206 905 2 2 6 2 8 0 3 -3 48 -200 101 -439 52 -239 98
-443 101 -452 5 -16 24 -18 222 -18 l217 0 139 668 c77 367 141 673 144 680 3
9 -36 12 -176 12 -178 0 -180 0 -185 -22 -3 -13 -40 -225 -83 -473 -43 -247
-79 -452 -81 -454 -9 -12 -24 47 -118 476 l-102 468 -181 3 c-165 2 -181 1
-186 -15 -3 -10 -48 -216 -101 -458 -98 -450 -108 -492 -119 -465 -3 8 -39
211 -81 450 -41 239 -78 447 -81 463 l-6 27 -179 0 c-98 0 -179 -1 -179 -3z"/>
</g>
</svg>
