<?xml version="1.0" standalone="no"?>
<!DOCTYPE svg PUBLIC "-//W3C//DTD SVG 20010904//EN"
 "http://www.w3.org/TR/2001/REC-SVG-20010904/DTD/svg10.dtd">
<svg version="1.0" xmlns="http://www.w3.org/2000/svg"
 width="1200.000000pt" height="640.000000pt" viewBox="0 0 1200.000000 640.000000"
 preserveAspectRatio="xMidYMid meet">

<g transform="translate(0.000000,640.000000) scale(0.100000,-0.100000)"
fill="#94a3b8" stroke="none">
<path d="M5915 6138 c-198 -44 -361 -81 -363 -83 -2 -1 6 -38 17 -81 11 -44
28 -135 38 -204 17 -117 18 -253 18 -2055 0 -1523 -3 -1949 -13 -2020 -11 -81
-39 -201 -57 -247 -7 -17 13 -18 323 -18 l330 0 22 52 c12 28 31 96 43 150
l20 98 91 -88 c139 -134 284 -215 466 -259 105 -25 384 -26 488 0 241 58 412
157 590 341 336 347 505 907 471 1560 -12 234 -47 428 -109 616 -177 531 -559
852 -1057 889 -331 23 -597 -58 -816 -249 -89 -78 -99 -78 -89 3 13 110 8
1321 -6 1429 -21 169 -34 248 -41 247 -3 0 -168 -37 -366 -81z m1196 -1962
c257 -55 404 -264 465 -661 26 -169 26 -642 0 -829 -50 -366 -158 -569 -351
-663 -76 -37 -136 -48 -270 -48 -108 0 -142 4 -205 23 -135 43 -243 106 -342
200 l-58 55 0 807 0 807 55 61 c187 206 457 301 706 248z"/>
<path d="M9325 6138 c-198 -43 -361 -81 -363 -83 -2 -2 5 -41 16 -87 62 -256
64 -320 59 -2378 -4 -1988 -2 -1916 -57 -2087 -11 -34 -20 -65 -20 -68 0 -3
147 -4 328 -3 l327 3 23 48 c12 26 32 92 44 147 l21 99 74 -74 c187 -188 402
-281 674 -292 616 -25 1104 401 1289 1126 44 174 62 319 67 562 8 349 -22 587
-107 842 -79 235 -175 400 -323 554 -199 206 -445 321 -734 342 -337 24 -592
-55 -829 -258 -71 -61 -89 -65 -79 -18 12 58 17 1128 6 1305 -11 172 -40 403
-50 401 -3 0 -168 -37 -366 -81z m1196 -1962 c139 -30 263 -121 338 -249 120
-205 174 -614 141 -1072 -38 -515 -163 -765 -429 -857 -56 -20 -86 -23 -201
-23 -114 0 -147 4 -210 23 -134 43 -258 116 -367 219 l-43 40 0 800 0 801 66
71 c126 136 299 234 449 254 70 9 195 6 256 -7z"/>
<path d="M4303 6146 c-234 -57 -395 -301 -355 -538 26 -157 121 -287 261 -356
65 -32 84 -37 168 -40 158 -7 279 41 379 149 94 103 129 203 122 350 -4 86 -9
106 -41 173 -98 207 -317 314 -534 262z"/>
<path d="M3120 4814 c-102 -80 -261 -150 -396 -174 -135 -24 -260 -10 -529 58
-300 77 -413 93 -625 93 -247 0 -431 -33 -630 -112 -454 -182 -716 -610 -670
-1096 37 -393 252 -656 654 -799 62 -22 75 -29 60 -36 -10 -4 -64 -24 -119
-44 -265 -96 -407 -213 -457 -377 -17 -57 -20 -87 -16 -172 4 -91 9 -112 37
-169 74 -151 240 -231 557 -272 65 -8 265 -19 444 -24 179 -5 368 -14 420 -20
332 -41 492 -154 519 -365 39 -314 -185 -528 -603 -574 -185 -21 -374 -8 -525
35 -301 87 -425 308 -336 599 8 28 15 53 15 58 0 4 -151 7 -335 7 l-334 0 -16
-52 c-54 -183 -59 -398 -12 -541 106 -326 435 -541 952 -621 242 -38 579 -44
805 -16 600 76 980 346 1100 782 43 158 45 374 4 532 -91 350 -375 581 -814
662 -62 11 -198 18 -495 24 -225 5 -432 14 -460 20 -76 16 -99 37 -103 96 -2
42 2 56 27 90 38 54 148 126 282 186 105 47 112 48 249 58 78 6 176 17 218 26
396 80 678 278 815 574 74 158 82 199 82 400 -1 164 -3 180 -29 260 -31 94
-91 213 -136 271 -17 20 -30 39 -30 41 0 3 24 -2 53 -10 84 -24 322 -21 420 6
121 33 332 154 332 189 0 14 -314 443 -324 442 -3 0 -26 -16 -51 -35z m-1362
-580 c186 -41 312 -167 357 -355 19 -84 19 -284 0 -367 -44 -186 -164 -309
-350 -357 -97 -25 -227 -30 -333 -11 -285 50 -424 226 -424 540 0 185 41 310
136 413 55 61 106 94 192 123 112 39 283 45 422 14z"/>
<path d="M4383 4727 l-333 -60 0 -1619 0 -1618 360 0 360 0 0 1680 0 1680 -27
-1 c-16 -1 -178 -28 -360 -62z"/>
</g>
</svg>
