<?xml version="1.0" standalone="no"?>
<!DOCTYPE svg PUBLIC "-//W3C//DTD SVG 20010904//EN"
 "http://www.w3.org/TR/2001/REC-SVG-20010904/DTD/svg10.dtd">
<svg version="1.0" xmlns="http://www.w3.org/2000/svg"
 width="1200.000000pt" height="473.000000pt" viewBox="0 0 1200.000000 473.000000"
 preserveAspectRatio="xMidYMid meet">

<g transform="translate(0.000000,473.000000) scale(0.100000,-0.100000)"
fill="#94a3b8" stroke="none">
<path d="M140 4592 c0 -5 11 -14 23 -19 37 -17 253 -182 358 -274 202 -176
417 -401 573 -599 37 -47 72 -91 78 -99 36 -44 161 -229 165 -243 3 -10 8 -18
12 -18 4 0 15 -17 26 -37 11 -21 32 -56 46 -78 78 -119 231 -430 299 -605 18
-47 38 -98 45 -115 29 -68 98 -295 134 -442 65 -266 121 -639 121 -815 0 -35
3 -87 6 -115 l7 -53 448 0 449 0 0 38 c0 82 22 336 40 478 76 578 274 1146
577 1650 180 300 376 548 642 815 210 210 326 311 515 448 l120 86 -690 3
-689 3 -64 -68 c-301 -320 -641 -824 -840 -1244 l-64 -134 -114 225 c-62 124
-145 276 -183 338 -65 105 -248 381 -260 392 -3 3 -42 52 -85 110 -44 57 -87
112 -95 120 -8 9 -31 36 -50 59 -19 24 -68 79 -109 122 l-73 79 -684 0 c-376
0 -684 -4 -684 -8z"/>
<path d="M9258 3090 c-217 -35 -385 -118 -519 -257 -185 -191 -278 -445 -279
-755 -1 -487 230 -854 615 -977 235 -76 524 -67 745 23 246 99 438 331 510
616 84 335 35 703 -128 955 -165 256 -419 391 -752 400 -74 2 -161 0 -192 -5z
m362 -270 c202 -68 352 -244 417 -488 23 -84 26 -118 27 -257 0 -193 -19 -288
-91 -435 -80 -166 -223 -284 -394 -325 -81 -19 -246 -19 -326 0 -224 53 -390
231 -460 493 -23 85 -26 117 -26 262 -1 147 2 176 26 262 71 265 247 453 471
504 90 20 273 12 356 -16z"/>
<path d="M3830 2075 l0 -995 140 0 140 0 2 486 3 486 443 -486 443 -486 206 0
207 0 -60 62 c-48 50 -414 431 -898 936 l-51 52 463 463 c254 254 462 465 462
470 0 4 -82 7 -182 7 l-183 0 -419 -433 c-231 -237 -423 -433 -428 -435 -4 -2
-8 192 -8 432 l0 436 -140 0 -140 0 0 -995z"/>
<path d="M5475 3043 c3 -16 138 -462 298 -993 l293 -965 191 -3 190 -2 47 187
c223 894 391 1542 396 1531 4 -7 103 -397 220 -866 l212 -852 183 0 183 0 16
48 c12 39 576 1871 592 1925 5 16 -6 17 -145 17 l-150 0 -9 -32 c-293 -1055
-467 -1666 -473 -1661 -5 7 -429 1671 -429 1688 0 3 -91 4 -202 3 l-203 -3
-210 -842 c-179 -718 -225 -891 -225 -849 0 3 -106 385 -235 847 -129 462
-235 843 -235 845 0 2 -70 4 -156 4 l-156 0 7 -27z"/>
<path d="M510 865 l0 -35 5675 0 5675 0 0 35 0 35 -5675 0 -5675 0 0 -35z"/>
<path d="M2102 499 c-74 -37 -115 -135 -92 -220 26 -96 91 -143 200 -142 112
0 110 -2 110 114 l0 100 -67 -3 c-60 -3 -68 -5 -68 -23 0 -16 8 -21 38 -23
l38 -3 -3 -57 c-3 -55 -4 -57 -33 -60 -74 -9 -147 43 -161 113 -23 124 83 213
204 172 l42 -15 0 28 c0 33 -18 40 -105 40 -41 0 -73 -7 -103 -21z"/>
<path d="M2800 330 l0 -190 30 0 30 0 0 85 0 85 28 0 c41 0 56 -16 90 -95 27
-63 34 -70 61 -73 17 -2 31 -1 31 3 0 11 -72 150 -87 167 -13 15 -12 18 9 29
34 18 47 40 48 79 0 72 -47 100 -172 100 l-68 0 0 -190z m161 130 c13 -7 19
-21 19 -45 0 -41 -20 -55 -79 -55 l-41 0 0 55 0 55 41 0 c22 0 49 -5 60 -10z"/>
<path d="M3530 330 l0 -190 25 0 25 0 0 190 0 190 -25 0 -25 0 0 -190z"/>
<path d="M4070 330 l0 -191 28 3 27 3 5 151 5 151 59 -153 c55 -145 60 -154
85 -154 24 0 30 9 86 158 l60 157 3 -157 3 -158 29 0 30 0 -2 188 -3 187 -45
0 -45 0 -54 -147 c-30 -82 -58 -148 -61 -148 -4 0 -32 66 -62 148 l-56 147
-46 3 -46 3 0 -191z"/>
<path d="M4999 505 c-34 -18 -53 -64 -44 -105 7 -30 73 -90 100 -90 23 0 55
-41 55 -70 0 -53 -61 -73 -132 -45 -14 6 -18 2 -18 -18 0 -33 11 -39 69 -40
62 -1 108 19 126 54 35 67 10 125 -75 170 -72 38 -88 71 -50 101 20 16 33 18
73 13 47 -7 49 -6 45 16 -3 22 -8 24 -63 26 -38 2 -70 -3 -86 -12z"/>
<path d="M5640 330 l0 -190 105 0 105 0 0 25 c0 25 -1 25 -80 25 l-80 0 0 60
0 60 75 0 c73 0 75 1 75 25 0 24 -2 25 -75 25 l-75 0 0 55 0 55 80 0 c79 0 80
0 80 25 l0 25 -105 0 -105 0 0 -190z"/>
<path d="M6330 330 l0 -190 105 0 105 0 0 25 c0 25 -1 25 -80 25 l-80 0 0 165
0 165 -25 0 -25 0 0 -190z"/>
<path d="M7021 506 c-13 -7 -30 -24 -37 -37 -32 -58 -5 -113 75 -154 59 -29
73 -46 69 -82 -4 -40 -47 -59 -105 -46 -41 10 -43 9 -43 -13 0 -30 12 -36 69
-37 89 -1 142 40 141 110 -1 46 -24 75 -91 113 -50 28 -65 42 -67 62 -5 40 33
61 93 52 45 -6 47 -6 43 17 -3 22 -8 24 -63 26 -36 2 -70 -3 -84 -11z"/>
<path d="M7610 495 c0 -24 3 -25 60 -25 l60 0 0 -166 0 -165 28 3 27 3 3 163
2 162 55 0 c52 0 55 1 55 25 l0 25 -145 0 -145 0 0 -25z"/>
<path d="M8350 330 l0 -190 25 0 c25 0 25 1 25 86 l0 85 38 -3 c36 -3 38 -6
77 -85 36 -74 43 -83 68 -83 15 0 27 2 27 4 0 15 -74 163 -86 173 -14 10 -12
14 14 27 33 17 42 34 42 80 0 67 -50 96 -167 96 l-63 0 0 -190z m160 120 c42
-42 8 -90 -65 -90 l-45 0 0 55 0 55 45 0 c32 0 51 -6 65 -20z"/>
<path d="M9144 501 c-93 -57 -120 -183 -59 -286 15 -26 39 -49 62 -60 46 -22
128 -23 170 -2 38 20 81 70 88 103 3 13 7 35 10 48 14 69 -34 169 -96 201 -41
22 -137 19 -175 -4z m142 -36 c25 -10 40 -26 54 -57 63 -139 -50 -279 -168
-208 -87 53 -81 216 9 262 41 22 59 22 105 3z"/>
<path d="M9890 330 l0 -190 25 0 25 0 2 160 3 161 60 -161 c57 -152 61 -160
87 -160 24 0 29 8 57 80 17 44 46 117 64 163 l32 82 3 -162 2 -163 25 0 25 0
0 190 0 190 -44 0 -44 0 -30 -77 c-16 -43 -41 -113 -57 -156 -17 -47 -31 -73
-36 -66 -4 7 -31 77 -60 156 l-53 143 -43 0 -43 0 0 -190z"/>
</g>
</svg>
