<?xml version="1.0" standalone="no"?>
<!DOCTYPE svg PUBLIC "-//W3C//DTD SVG 20010904//EN"
 "http://www.w3.org/TR/2001/REC-SVG-20010904/DTD/svg10.dtd">
<svg version="1.0" xmlns="http://www.w3.org/2000/svg"
 width="1200.000000pt" height="480.000000pt" viewBox="0 0 1200.000000 480.000000"
 preserveAspectRatio="xMidYMid meet">

<g transform="translate(0.000000,480.000000) scale(0.100000,-0.100000)"
fill="#94a3b8" stroke="none">
<path d="M8995 4565 c-14 -13 -25 -28 -25 -32 0 -5 -18 -8 -39 -8 -45 0 -76
-23 -86 -62 -8 -35 18 -73 53 -74 22 -1 23 -2 5 -6 -21 -4 -21 -6 -8 -41 22
-62 45 -101 71 -121 28 -22 30 -31 9 -31 -22 0 -45 -53 -45 -104 0 -36 5 -49
30 -73 17 -15 30 -35 30 -43 0 -9 -3 -11 -8 -5 -4 6 -39 9 -79 7 -55 -3 -73
-7 -73 -18 0 -35 -54 13 -65 58 -14 55 -118 44 -127 -14 -3 -21 -5 -21 -26 12
-13 19 -25 47 -29 63 -3 15 -9 27 -13 27 -13 0 -50 -46 -50 -63 0 -9 -13 -24
-29 -33 -29 -17 -51 -51 -51 -80 0 -10 7 -13 24 -8 16 4 38 -4 71 -25 69 -44
110 -56 144 -42 23 10 34 8 72 -13 24 -14 54 -26 67 -26 12 0 22 -4 22 -10 0
-5 8 -10 18 -10 24 0 59 -38 67 -72 6 -23 13 -28 36 -28 16 0 29 -4 29 -10 0
-5 21 -10 47 -10 l46 0 -24 -26 c-21 -22 -25 -23 -35 -10 -13 19 -35 21 -51 5
-20 -20 -102 -20 -141 0 -45 23 -156 25 -173 4 -16 -18 -71 -16 -113 4 -49 23
-70 5 -62 -53 l5 -41 -46 24 c-26 12 -63 23 -82 23 l-36 0 23 -18 c20 -15 22
-22 13 -45 -11 -27 -10 -28 22 -23 20 4 58 -3 102 -18 39 -13 60 -24 48 -25
-31 -1 -40 -21 -17 -38 14 -11 43 -14 109 -12 57 2 98 -1 112 -9 15 -8 24 -9
28 -1 5 7 25 8 58 4 47 -7 50 -6 44 14 -3 11 -2 22 1 22 28 6 182 5 193 -1 20
-13 -6 -38 -47 -46 -19 -3 -34 -10 -34 -14 0 -4 -17 -12 -38 -17 -50 -13 -130
-72 -139 -103 -4 -14 -7 -44 -8 -68 0 -35 -4 -43 -20 -46 -11 -2 -48 -9 -83
-15 -48 -9 -71 -9 -103 0 -49 15 -57 30 -34 65 24 37 14 55 -27 47 -18 -3 -36
-11 -40 -16 -3 -6 -8 3 -10 19 -2 19 -10 30 -22 32 -14 3 -17 0 -13 -11 4 -10
-1 -18 -14 -22 -23 -8 -25 -42 -3 -70 14 -19 13 -20 -17 -25 -32 -5 -54 -30
-26 -30 8 0 17 -10 20 -21 5 -18 12 -21 41 -17 36 4 36 4 30 -29 -7 -37 8 -63
36 -63 10 0 20 -6 23 -12 3 -9 8 -10 16 -3 8 8 8 19 -1 43 -15 39 -2 54 21 26
10 -12 26 -24 37 -26 13 -2 18 -10 16 -26 -2 -15 1 -23 10 -21 40 5 58 -2 64
-26 7 -28 8 -29 34 -15 13 7 26 7 42 0 23 -11 23 -14 21 -143 -1 -73 -6 -144
-12 -159 -15 -41 -47 -37 -65 7 -11 25 -21 35 -37 35 -17 0 -19 -3 -10 -14 8
-10 9 -16 1 -21 -5 -3 -10 -15 -10 -26 0 -16 -4 -19 -20 -14 -12 4 -27 1 -35
-5 -19 -16 -19 -31 -1 -24 10 4 16 -2 18 -18 2 -18 10 -24 36 -26 34 -3 39
-11 21 -29 -15 -15 -3 -47 13 -36 7 4 20 6 29 5 9 -2 25 8 35 21 31 38 43 41
54 13 11 -30 50 -36 70 -11 10 12 16 13 26 4 11 -9 14 -7 14 9 0 15 -10 24
-35 32 -41 13 -45 35 -15 73 11 14 20 30 20 36 0 6 9 11 19 11 11 0 23 9 26
20 5 14 14 20 28 18 19 -3 23 3 28 39 3 24 8 46 12 49 8 8 27 -39 27 -66 0
-10 6 -20 14 -23 7 -3 16 -24 20 -46 3 -23 12 -41 19 -41 6 0 19 -13 28 -28
16 -29 115 -86 140 -81 8 1 34 -4 57 -11 34 -11 48 -11 63 -2 10 7 37 12 58
12 22 0 44 6 48 13 4 7 20 18 36 25 15 6 32 23 39 37 12 27 32 33 44 13 4 -7
4 -10 -1 -6 -4 4 -14 3 -21 -3 -10 -9 -11 -16 -2 -32 9 -17 7 -24 -11 -38 -27
-22 -27 -26 8 -34 41 -9 92 16 121 58 14 20 28 37 33 37 4 0 7 6 7 14 0 16
-34 31 -50 21 -5 -3 -10 -1 -10 5 0 7 -14 25 -31 41 -22 21 -28 33 -22 42 15
18 12 137 -3 137 -13 0 -24 22 -24 51 0 10 -7 19 -15 19 -8 0 -25 10 -37 22
-27 27 -111 34 -129 11 -6 -7 -17 -13 -23 -13 -26 0 -56 -58 -56 -109 0 -59
22 -100 71 -136 31 -24 32 -25 9 -25 -34 0 -90 22 -90 36 0 6 -7 17 -16 25
-10 8 -14 22 -11 38 3 16 -1 33 -10 44 -15 15 -14 19 3 38 18 20 18 21 -3 57
l-21 37 24 18 c31 23 30 33 -6 64 -58 48 -32 57 49 16 l54 -26 20 27 c39 54
156 89 171 51 3 -8 14 -15 25 -15 10 0 22 -8 26 -17 6 -17 7 -17 16 -1 6 11 6
33 -2 63 -15 60 -7 111 29 189 26 55 34 64 61 68 17 2 35 0 41 -6 7 -7 10 -2
10 15 0 14 -9 34 -20 44 -51 46 -65 204 -25 288 9 20 15 44 11 52 -3 8 -1 15
4 15 6 0 10 5 10 10 0 17 -32 11 -64 -13 -17 -13 -57 -34 -89 -46 -76 -31
-164 -84 -208 -127 -33 -32 -38 -34 -52 -20 -24 24 -41 -4 -34 -57 4 -28 -2
-72 -16 -131 -22 -87 -24 -91 -71 -123 -68 -46 -90 -43 -42 6 21 22 36 44 32
49 -3 5 6 17 20 27 20 13 24 22 20 41 -4 15 0 34 11 50 16 25 16 27 0 39 -12
8 -17 27 -17 60 0 45 -1 47 -25 43 -20 -4 -25 0 -30 24 -8 34 -29 46 -50 28
-12 -10 -18 -8 -34 11 -16 19 -17 25 -5 27 8 2 14 8 14 13 0 5 16 9 35 9 25 0
35 4 35 15 0 34 31 76 60 82 17 3 30 9 30 14 0 5 8 9 19 9 10 0 39 11 65 25
38 20 51 23 73 14 36 -13 65 -5 134 38 40 24 64 33 78 28 18 -5 21 -2 21 20 0
25 -39 75 -59 75 -5 0 -12 13 -16 30 -4 16 -16 37 -28 45 -21 15 -23 14 -40
-27 -10 -24 -26 -51 -35 -61 -16 -19 -17 -18 -22 9 -4 21 -13 31 -38 38 -40
11 -82 -5 -82 -32 0 -26 -54 -80 -58 -59 -2 12 -20 16 -75 19 -41 2 -75 -1
-79 -7 -5 -6 -8 -5 -8 4 0 7 14 29 30 48 21 23 30 44 30 67 0 44 -26 106 -45
106 -23 0 -18 16 10 34 25 16 75 109 75 139 0 8 -8 18 -17 20 -12 3 -9 5 8 6
34 1 49 19 49 57 0 49 -30 79 -79 79 -23 0 -41 3 -41 8 0 4 -11 19 -25 32 -34
35 -96 35 -130 0z m91 -23 c22 -15 34 -50 25 -74 -9 -21 -10 -20 -10 13 -1 19
-6 40 -13 47 -16 16 -50 15 -68 0 -12 -11 -12 -10 -1 5 14 17 47 22 67 9z
m-36 -69 c0 -10 -4 -14 -8 -8 -4 6 -11 13 -16 18 -5 4 -2 7 7 7 10 0 17 -8 17
-17z m-76 -25 c9 -12 16 -29 16 -38 -1 -8 -7 0 -15 19 -14 30 -18 33 -49 29
-19 -2 -32 0 -30 4 11 17 63 8 78 -14z m251 12 c3 -6 -1 -7 -10 -4 -31 12 -64
-5 -74 -39 -6 -21 -10 -25 -10 -12 -2 34 27 65 59 65 16 0 32 -4 35 -10z
m-178 -77 c-3 -10 -5 -2 -5 17 0 19 2 27 5 18 2 -10 2 -26 0 -35z m40 -20 c-3
-10 -5 -4 -5 12 0 17 2 24 5 18 2 -7 2 -21 0 -30z m-90 -40 c-2 -16 -4 -5 -4
22 0 28 2 40 4 28 2 -13 2 -35 0 -50z m130 -10 c-2 -16 -4 -5 -4 22 0 28 2 40
4 28 2 -13 2 -35 0 -50z m-50 -15 c-3 -8 -6 -5 -6 6 -1 11 2 17 5 13 3 -3 4
-12 1 -19z m51 -192 c10 -20 11 -34 4 -50 -10 -21 -11 -20 -11 4 -2 46 -13 70
-32 70 -17 0 -19 -8 -19 -60 0 -33 -4 -60 -10 -60 -6 0 -10 27 -10 60 0 52 -2
60 -19 60 -22 0 -31 -18 -31 -68 -1 -32 -2 -34 -12 -18 -7 13 -7 29 0 54 6 19
10 38 8 41 -2 3 24 4 57 1 56 -5 63 -8 75 -34z m-524 -145 l31 -34 -32 21
c-58 41 -70 26 -20 -27 l32 -34 -56 39 c-50 34 -54 39 -33 42 20 3 24 9 24 35
1 29 2 30 12 12 6 -11 25 -35 42 -54z m990 7 c20 -3 16 -8 -33 -42 l-56 -39
33 34 c49 53 37 68 -21 27 -31 -22 -30 -20 8 24 37 43 40 44 43 23 2 -16 11
-25 26 -27z m-791 -62 c21 -10 36 -20 34 -23 -3 -2 -21 4 -41 13 -40 20 -56
14 -35 -13 13 -16 13 -16 -9 -1 -13 9 -31 26 -39 38 -15 21 -14 21 5 9 28 -18
38 -6 18 23 -9 12 -16 27 -16 32 0 5 10 -6 23 -25 12 -19 39 -42 60 -53z m224
52 c-3 -8 -6 -5 -6 6 -1 11 2 17 5 13 3 -3 4 -12 1 -19z m353 -9 c-15 -27 -5
-37 20 -21 29 18 24 10 -17 -29 -20 -18 -31 -26 -24 -16 21 26 6 31 -39 13
-50 -20 -53 -13 -4 10 19 9 42 28 51 40 19 30 28 31 13 3z m-449 -42 c-18 -18
-13 -27 16 -27 25 0 25 -1 10 -18 -23 -25 -21 -32 8 -32 23 0 25 -3 25 -50 0
-38 -4 -50 -15 -50 -9 0 -15 9 -15 21 0 12 -16 36 -35 55 -30 28 -35 39 -35
78 0 39 3 45 23 48 25 3 34 -9 18 -25z m299 -27 c0 -40 -4 -50 -26 -65 -14 -9
-32 -32 -40 -51 -16 -39 -50 -49 -40 -11 3 12 6 34 6 50 0 22 4 27 25 27 29 0
31 7 8 32 -15 17 -15 18 10 18 27 0 36 13 17 25 -21 13 -10 32 15 27 23 -4 25
-9 25 -52z m-157 13 c-7 -2 -19 -2 -25 0 -7 3 -2 5 12 5 14 0 19 -2 13 -5z
m11 -55 c8 -14 7 -22 -7 -35 -16 -16 -18 -16 -33 -1 -10 10 -14 23 -9 37 8 25
33 24 49 -1z m626 -113 c-7 -8 -17 -15 -23 -15 -6 0 -2 7 9 15 25 19 30 19 14
0z m-34 -153 c1 -51 8 -83 26 -124 l26 -55 -65 37 c-36 21 -94 46 -129 56 -41
11 -60 20 -52 25 7 4 16 3 19 -3 6 -9 11 -9 22 0 12 10 16 9 21 -3 8 -22 26
-9 27 18 1 16 3 14 10 -10 15 -52 29 -38 30 30 l1 62 12 -67 c13 -73 18 -84
36 -73 8 5 10 22 5 52 -5 36 1 123 9 123 1 0 2 -31 2 -68z m-1121 38 c3 -5 1
-10 -4 -10 -6 0 -11 5 -11 10 0 6 2 10 4 10 3 0 8 -4 11 -10z m935 6 c0 -2 -8
-10 -17 -17 -16 -13 -17 -12 -4 4 13 16 21 21 21 13z m-883 -22 c-3 -3 -12 -4
-19 -1 -8 3 -5 6 6 6 11 1 17 -2 13 -5z m72 -17 c8 -11 5 -13 -19 -9 -17 2
-33 8 -36 13 -9 14 42 10 55 -4z m732 -35 c-35 -41 -44 -62 -61 -139 -25 -115
-32 -133 -61 -158 l-24 -20 23 26 c28 33 76 233 62 260 -15 26 -11 37 5 16 13
-18 16 -16 50 22 51 57 55 52 6 -7z m-576 8 c-15 -16 -15 -22 -5 -35 10 -13 9
-15 -8 -15 -12 0 -19 6 -18 17 1 19 26 51 40 52 5 1 1 -8 -9 -19z m173 -25
c-2 -12 -7 -7 -15 16 -12 30 -11 32 3 17 9 -8 14 -23 12 -33z m62 10 c0 -13
-4 -26 -8 -29 -5 -3 -8 10 -8 29 1 37 16 37 16 0z m-502 -1 c13 4 22 1 26 -9
3 -10 13 -14 23 -11 10 3 34 2 53 -3 l35 -8 -40 -7 c-27 -5 -54 -2 -83 8 -56
20 -88 42 -70 49 7 2 18 -2 25 -10 7 -9 19 -12 31 -9z m367 6 c10 -11 16 -20
13 -20 -3 0 -13 9 -23 20 -10 11 -16 20 -13 20 3 0 13 -9 23 -20z m205 -14 c0
-7 -14 -25 -32 -42 l-32 -29 22 29 c12 16 22 37 22 48 0 11 5 16 10 13 6 -3
10 -12 10 -19z m-235 -16 c3 -6 -1 -7 -9 -4 -18 7 -21 14 -7 14 6 0 13 -4 16
-10z m285 -15 c0 -14 -13 -39 -30 -57 l-31 -33 26 39 c14 21 25 47 25 57 0 11
2 19 5 19 3 0 5 -11 5 -25z m-406 -14 c3 -4 -6 -6 -19 -3 -14 2 -25 6 -25 8 0
8 39 4 44 -5z m-69 -11 c-11 -5 -29 -9 -40 -9 l-20 0 20 9 c11 5 29 9 40 9
l20 0 -20 -9z m722 -62 c-3 -7 -5 -2 -5 12 0 14 2 19 5 13 2 -7 2 -19 0 -25z
m43 -7 c-23 -43 -2 -70 26 -33 11 14 11 11 2 -20 -13 -44 -4 -60 17 -32 13 17
14 16 8 -18 -7 -46 9 -51 32 -10 9 15 13 18 10 7 -21 -68 -16 -91 14 -62 11
10 12 3 7 -39 -4 -30 -2 -64 4 -80 6 -16 7 -24 2 -19 -5 6 -16 31 -26 57 -10
26 -44 89 -76 140 -35 56 -54 95 -47 97 7 2 16 10 20 17 12 22 19 16 7 -5z
m120 -61 c-6 -11 -13 -20 -16 -20 -2 0 0 9 6 20 6 11 13 20 16 20 2 0 0 -9 -6
-20z m-580 -10 c-31 -9 -65 -22 -75 -28 -17 -10 -12 -12 30 -12 l50 -1 -39
-14 c-21 -7 -46 -21 -55 -30 -15 -16 -13 -16 29 -10 l45 6 -32 -21 c-18 -12
-33 -28 -33 -36 0 -11 7 -11 42 2 53 18 59 12 14 -16 -52 -31 -48 -51 6 -31
13 4 37 11 53 15 26 6 23 3 -17 -23 -27 -17 -48 -37 -48 -45 0 -13 7 -12 46 4
59 26 90 26 49 2 -35 -22 -60 -50 -52 -58 3 -4 26 2 52 11 57 22 68 14 21 -15
-20 -12 -47 -40 -61 -63 l-25 -42 0 38 c0 39 -13 48 -28 20 -8 -13 -11 -11
-17 15 -13 59 -35 32 -35 -43 0 -29 -5 -45 -15 -49 -10 -4 -15 -20 -15 -53 -1
-38 -3 -44 -11 -30 -17 28 -29 19 -29 -22 0 -25 -5 -41 -15 -45 -21 -8 -19 31
6 119 23 85 52 245 45 253 -3 2 -12 -1 -20 -7 -12 -10 -13 -6 -9 31 l6 43 -23
-20 -23 -20 9 25 c4 14 8 37 9 51 1 54 91 114 176 116 l44 1 -55 -18z m396
-157 c3 -28 10 -43 20 -43 11 0 14 16 15 68 2 65 3 62 15 -25 4 -36 8 -41 27
-39 13 1 29 6 36 11 9 5 12 3 9 -5 -2 -7 -25 -18 -52 -25 -26 -7 -61 -22 -77
-34 -23 -17 -37 -21 -61 -16 -26 6 -28 9 -15 17 12 6 17 23 18 56 l1 47 8 -48
c16 -95 39 -68 41 48 2 78 3 76 15 -12z m-113 -21 c4 -21 3 -31 -3 -27 -6 3
-10 20 -10 37 0 38 5 34 13 -10z m-56 -14 c-3 -7 -5 -2 -5 12 0 14 2 19 5 13
2 -7 2 -19 0 -25z m-700 -24 c-3 -3 -12 -4 -19 -1 -8 3 -5 6 6 6 11 1 17 -2
13 -5z m263 -8 c0 -8 3 -23 7 -33 6 -16 5 -16 -10 -4 -14 11 -23 11 -41 3 -21
-9 -23 -8 -19 9 7 25 -12 25 -60 -1 -20 -11 -37 -16 -37 -10 0 5 -8 10 -17 11
-28 1 36 19 102 28 33 5 63 9 68 10 4 0 7 -5 7 -13z m488 -23 c-10 -2 -28 -2
-40 0 -13 2 -5 4 17 4 22 1 32 -1 23 -4z m-149 -106 c-42 -37 -71 -79 -87
-122 l-10 -30 -1 40 c-1 52 28 99 76 124 55 29 63 25 22 -12z m8 -97 c-25 -28
-52 -70 -60 -93 l-15 -42 -1 40 c-1 49 27 98 71 125 52 32 53 24 5 -30z m32
-70 c-22 -23 -45 -61 -53 -88 -14 -44 -15 -45 -15 -14 -1 45 21 94 54 120 46
36 54 25 14 -18z m201 26 c0 -2 -7 -7 -16 -10 -8 -3 -12 -2 -9 4 6 10 25 14
25 6z m106 -31 c17 -26 13 -75 -7 -75 -17 0 -59 48 -59 68 0 40 41 44 66 7z
m-286 -80 c-12 -19 -26 -48 -30 -63 -8 -26 -8 -26 -9 9 -1 25 6 44 24 63 34
36 41 33 15 -9z m-380 -82 c-11 -17 -11 -17 -6 0 3 10 7 35 8 55 l1 37 4 -37
c2 -21 -1 -46 -7 -55z m419 8 c-6 -17 -9 -40 -6 -51 6 -24 -8 -27 -17 -4 -11
28 -6 57 11 76 22 24 25 18 12 -21z m68 -64 c7 -23 10 -43 8 -45 -7 -7 -35 57
-35 79 0 31 12 15 27 -34z m133 8 c13 -14 21 -25 18 -25 -2 0 -15 11 -28 25
-13 14 -21 25 -18 25 2 0 15 -11 28 -25z m-36 -44 c-7 -7 -44 31 -44 46 0 8
10 2 24 -14 13 -15 22 -30 20 -32z m-604 28 c0 -11 -4 -18 -10 -14 -5 3 -7 12
-3 20 7 21 13 19 13 -6z"/>
<path d="M4845 4375 c-80 -22 -263 -119 -359 -192 -177 -133 -426 -391 -659
-685 l-111 -139 -80 6 c-390 31 -605 199 -566 441 31 187 208 343 465 410 85
22 121 26 245 27 97 0 176 -6 240 -18 129 -24 134 -24 138 1 4 26 -16 35 -153
70 -257 65 -571 34 -790 -79 -102 -52 -223 -169 -260 -249 -103 -226 -16 -457
215 -570 116 -57 309 -98 458 -98 l54 0 -38 -52 c-75 -105 -277 -350 -349
-423 -115 -115 -101 -111 -242 -71 -154 44 -262 65 -382 72 -234 14 -431 -71
-431 -186 0 -75 73 -120 225 -141 140 -18 345 -1 524 46 62 16 66 16 170 -9
157 -38 254 -49 358 -41 176 12 352 71 502 168 50 33 71 43 67 31 -30 -77 -9
-161 48 -192 47 -26 166 -21 235 9 61 26 176 108 266 190 l59 54 -92 -117
c-51 -64 -92 -119 -92 -122 0 -3 62 -6 138 -6 l137 0 107 128 c115 137 339
364 455 461 166 138 335 228 358 192 3 -6 -81 -107 -187 -227 -309 -347 -318
-360 -318 -447 0 -53 3 -62 33 -92 85 -85 268 -41 485 115 46 33 85 60 86 60
2 0 6 -25 9 -55 7 -74 33 -115 87 -142 52 -27 114 -29 186 -8 54 16 195 100
268 159 l43 36 6 -49 c8 -65 30 -107 70 -132 27 -17 45 -20 118 -17 73 3 96 9
160 39 41 20 114 66 162 103 80 61 87 64 80 39 -16 -56 -9 -110 17 -139 74
-79 219 -69 365 26 65 43 279 230 299 262 8 14 6 22 -11 40 l-22 21 -76 -69
c-127 -115 -237 -202 -289 -229 -56 -28 -123 -33 -132 -11 -4 9 118 173 318
430 l323 415 197 0 198 1 35 38 c19 20 35 39 35 42 0 3 -90 4 -201 2 l-201 -3
80 103 c320 415 402 524 402 531 0 4 -62 7 -138 7 l-138 0 -248 -320 -248
-320 -83 0 -83 0 -32 -40 -31 -39 81 -3 80 -3 -215 -275 c-232 -295 -294 -364
-395 -442 -107 -82 -258 -148 -291 -127 -18 11 -16 15 114 181 456 587 1057
1370 1057 1378 0 6 -55 10 -137 9 l-138 0 -120 -157 c-65 -86 -216 -280 -334
-431 l-214 -273 -13 31 c-36 85 -222 81 -437 -9 -170 -71 -367 -233 -480 -396
-80 -115 -229 -235 -385 -308 -41 -20 -66 -26 -72 -20 -7 7 58 89 190 244 110
129 209 254 221 279 66 140 2 271 -131 271 -92 -1 -255 -79 -388 -188 l-54
-44 76 100 c42 56 76 104 76 107 0 3 -62 5 -138 5 l-138 0 -128 -160 c-173
-216 -393 -426 -598 -573 -86 -61 -132 -77 -155 -55 -12 13 26 65 287 396 165
210 300 384 300 387 0 3 -66 5 -147 5 l-148 -1 -145 -186 c-210 -269 -320
-371 -490 -458 -168 -85 -369 -103 -560 -49 l-59 16 97 49 c188 95 346 238
499 454 l92 130 88 23 c278 74 519 218 754 452 283 281 375 519 229 592 -42
22 -142 23 -215 3z m169 -65 c32 -12 41 -48 26 -97 -36 -111 -257 -378 -435
-523 -146 -120 -324 -220 -488 -276 -39 -13 -72 -23 -73 -21 -2 1 40 62 92
136 279 392 531 652 728 751 81 42 107 47 150 30z m1726 -1050 c15 -28 -12
-85 -89 -187 -135 -179 -333 -366 -481 -454 -168 -99 -234 -76 -155 55 109
181 439 495 613 583 57 29 98 30 112 3z m-4175 -560 c65 -9 339 -89 331 -97
-15 -15 -228 -44 -326 -44 -140 0 -210 14 -244 47 -29 30 -25 49 18 71 63 33
112 38 221 23z"/>
<path d="M4892 3740 c-84 -20 -172 -118 -180 -200 -3 -39 0 -51 21 -76 22 -25
31 -29 76 -27 112 3 222 112 221 220 -1 45 -16 68 -54 83 -30 11 -37 11 -84 0z"/>
<path d="M280 2000 l0 -70 5720 0 5720 0 0 70 0 70 -5720 0 -5720 0 0 -70z"/>
<path d="M2116 1596 c-25 -29 -46 -56 -46 -60 0 -16 39 -3 73 25 l37 31 40
-32 c64 -51 78 -36 29 33 -53 74 -72 75 -133 3z"/>
<path d="M1026 1488 c-3 -13 -10 -63 -16 -113 -12 -98 -47 -325 -56 -362 -6
-21 -3 -23 29 -23 l35 0 6 68 c16 163 29 282 31 282 5 0 153 -273 170 -312 8
-21 21 -38 28 -38 8 0 53 79 101 176 56 112 91 172 96 164 4 -7 13 -72 20
-144 18 -211 13 -196 67 -196 l46 0 -7 42 c-11 66 -55 399 -58 438 -2 27 -8
35 -22 35 -14 0 -43 -46 -119 -193 l-101 -192 -46 81 c-26 44 -74 132 -106
195 -60 115 -88 141 -98 92z"/>
<path d="M3831 1499 c-55 -16 -110 -59 -139 -108 -24 -41 -27 -56 -27 -141 0
-102 16 -150 67 -197 72 -68 232 -89 336 -43 28 12 52 28 52 34 0 6 3 21 6 34
9 30 -7 28 -60 -9 -81 -58 -202 -47 -261 22 -36 44 -59 130 -51 197 13 113 84
182 185 182 53 0 115 -24 140 -54 19 -22 28 -20 35 8 3 13 9 31 12 39 14 36
-202 62 -295 36z"/>
<path d="M4927 1500 c-155 -39 -230 -184 -181 -349 21 -72 83 -134 155 -155
153 -46 303 6 363 125 33 67 36 180 7 245 -23 51 -88 107 -143 124 -57 17
-154 22 -201 10z m145 -42 c48 -14 103 -73 117 -125 46 -164 -41 -313 -181
-313 -88 1 -157 65 -178 167 -38 182 83 319 242 271z"/>
<path d="M5535 1498 c-106 -38 -156 -109 -163 -229 -10 -181 88 -283 273 -282
93 0 185 32 185 63 0 10 3 25 6 34 9 25 -11 19 -61 -16 -88 -62 -217 -43 -272
41 -74 110 -44 289 57 342 67 36 168 21 227 -34 27 -24 32 -21 40 25 5 35 4
36 -43 52 -55 18 -202 21 -249 4z"/>
<path d="M6070 1497 c-154 -43 -223 -182 -174 -348 31 -103 131 -169 258 -169
169 0 274 91 284 244 2 39 -1 91 -8 116 -16 59 -88 130 -150 149 -64 19 -158
23 -210 8z m166 -46 c78 -36 120 -121 111 -227 -9 -118 -73 -194 -170 -202
-112 -9 -190 65 -203 195 -11 105 27 189 105 230 53 28 102 29 157 4z"/>
<path d="M8975 1501 c-77 -20 -115 -67 -115 -143 0 -63 33 -99 125 -138 39
-16 80 -39 93 -50 30 -30 29 -80 -2 -117 -21 -24 -32 -28 -75 -28 -45 0 -54 4
-90 39 -22 22 -42 38 -44 35 -3 -2 -7 -21 -11 -42 -7 -37 -6 -38 36 -57 83
-38 187 -21 242 40 39 43 51 94 36 149 -13 49 -41 72 -130 106 -105 40 -133
87 -86 142 36 42 94 39 140 -6 l35 -34 11 27 c15 41 13 52 -15 64 -34 15 -114
22 -150 13z"/>
<path d="M10109 1501 c-81 -17 -126 -76 -116 -157 6 -59 34 -87 119 -121 38
-16 80 -38 94 -50 49 -45 19 -136 -51 -149 -45 -8 -70 1 -116 43 -40 37 -41
36 -53 -19 -5 -23 -2 -30 25 -44 42 -21 125 -29 175 -15 85 23 141 124 114
206 -15 45 -44 67 -130 100 -105 40 -133 87 -86 142 36 42 94 39 140 -6 l35
-34 11 27 c5 15 10 33 10 40 0 28 -104 51 -171 37z"/>
<path d="M10475 1501 c-80 -20 -115 -62 -115 -136 0 -71 24 -99 126 -146 110
-51 132 -84 99 -148 -32 -64 -125 -65 -182 -3 -18 19 -34 34 -37 31 -2 -2 -6
-21 -10 -42 -7 -37 -6 -38 36 -57 129 -59 278 17 278 141 0 86 -19 108 -131
154 -108 44 -138 95 -83 146 39 36 94 33 137 -9 l35 -34 11 33 c6 17 11 35 11
39 0 23 -122 45 -175 31z"/>
<path d="M1715 1253 c-61 -135 -111 -250 -113 -255 -2 -4 12 -8 31 -8 l35 0
33 95 33 95 93 0 92 0 19 -43 c10 -23 27 -66 36 -95 l18 -52 49 0 c27 0 49 4
49 9 0 4 -17 46 -39 92 -21 46 -71 157 -111 247 -61 136 -76 162 -94 162 -18
0 -37 -36 -131 -247z m145 61 c16 -37 30 -71 30 -75 0 -5 -29 -9 -65 -9 -36 0
-65 2 -65 5 0 8 62 145 66 145 2 0 17 -30 34 -66z"/>
<path d="M2140 1245 l0 -255 43 0 42 0 0 255 0 255 -42 0 -43 0 0 -255z"/>
<path d="M2275 1482 c3 -8 5 -20 5 -28 0 -11 16 -12 81 -7 l81 6 -4 -231 -3
-232 45 0 45 0 -3 231 -3 232 81 -6 80 -5 0 27 0 26 -205 0 c-167 0 -204 -2
-200 -13z"/>
<path d="M2725 1245 l0 -255 43 0 42 0 0 121 c0 75 4 118 10 114 5 -3 48 -57
96 -120 l86 -115 54 0 c30 0 54 2 54 5 0 3 -43 58 -95 123 l-96 117 33 13 c69
26 97 57 105 118 6 50 -28 104 -77 121 -19 7 -84 12 -145 12 l-110 1 0 -255z
m222 181 c59 -69 6 -156 -97 -156 l-40 0 0 96 0 96 57 -4 c46 -4 61 -10 80
-32z"/>
<path d="M3170 1243 l0 -253 140 0 140 0 0 25 0 25 -100 0 -100 0 0 101 0 102
90 -5 90 -5 0 26 0 27 -90 -4 -90 -4 0 87 0 87 95 -4 95 -3 0 26 0 26 -135 -1
-135 -1 0 -252z"/>
<path d="M4195 1245 l0 -255 43 0 42 0 0 125 0 125 135 0 135 0 0 -125 0 -125
43 0 42 0 0 255 0 255 -42 0 -43 0 0 -105 0 -105 -135 0 -135 0 0 105 0 105
-42 0 -43 0 0 -255z"/>
<path d="M6540 1268 c0 -128 -3 -243 -6 -255 l-6 -23 188 0 189 1 31 92 30 92
92 3 93 3 23 -54 c13 -29 30 -72 37 -95 l12 -42 54 0 c56 0 61 4 39 35 -7 11
-43 88 -79 170 -36 83 -82 185 -102 228 -55 118 -59 115 -170 -133 -139 -310
-141 -313 -136 -260 1 13 -14 15 -104 12 l-106 -4 3 231 3 231 -42 0 -43 0 0
-232z m543 69 c11 -23 25 -57 33 -74 l14 -33 -69 0 -70 0 32 75 c17 41 33 75
36 75 3 0 14 -19 24 -43z"/>
<path d="M7248 1467 l4 -27 80 6 79 7 -3 -232 -3 -231 45 0 45 0 -3 231 -3
232 80 -6 81 -5 0 27 0 26 -203 0 -203 0 4 -28z"/>
<path d="M7695 1245 l0 -255 45 0 45 0 0 255 0 255 -45 0 -45 0 0 -255z"/>
<path d="M7915 1243 l0 -253 143 0 142 0 0 25 0 25 -100 0 -100 0 0 101 0 102
85 -5 c66 -5 85 -3 85 7 0 7 2 20 5 27 5 12 -10 13 -85 10 l-90 -4 0 87 0 87
95 -4 95 -3 0 26 0 26 -137 -1 -138 -1 0 -252z"/>
<path d="M8284 1246 l-2 -256 45 0 46 0 -8 121 c-5 82 -4 120 3 118 11 -4 120
-139 162 -202 24 -35 27 -37 83 -37 58 0 69 8 41 31 -9 7 -52 58 -96 113 l-80
100 51 22 c44 20 55 30 72 69 18 42 19 50 7 87 -22 71 -50 82 -196 86 l-127 4
-1 -256z m196 196 c63 -32 64 -118 1 -155 -16 -9 -50 -17 -75 -17 l-46 0 0 49
c0 26 3 69 6 95 7 45 7 46 43 46 20 0 52 -8 71 -18z"/>
<path d="M9263 1303 c4 -224 9 -244 78 -290 47 -31 162 -43 222 -24 96 32 127
90 133 250 2 64 6 149 8 189 l4 72 -36 0 -37 0 3 -177 c2 -155 0 -183 -15
-213 -49 -96 -191 -109 -249 -23 -17 25 -19 51 -22 221 l-4 192 -44 0 -45 0 4
-197z"/>
<path d="M9810 1245 l0 -255 43 0 42 0 0 255 0 255 -42 0 -43 0 0 -255z"/>
<path d="M10765 1242 l0 -252 140 0 140 0 0 25 c0 25 0 25 -97 25 l-98 0 0
101 0 102 85 -5 85 -6 0 27 0 26 -85 -4 -85 -3 0 87 0 87 95 -4 95 -4 0 27 0
27 -137 -2 -138 -1 0 -253z"/>
<path d="M6175 729 c-81 -20 -129 -101 -106 -178 14 -47 42 -70 133 -106 80
-32 102 -54 102 -102 0 -27 -7 -42 -32 -64 -18 -16 -44 -29 -57 -29 -39 0 -89
25 -113 55 -26 32 -27 32 -40 -16 -9 -34 -8 -37 22 -55 23 -14 50 -19 107 -19
65 0 81 4 116 27 85 56 98 177 27 239 -11 9 -48 27 -82 40 -77 29 -112 59
-112 94 0 38 15 60 49 75 38 16 95 -2 118 -36 19 -30 29 -30 37 0 3 13 8 30
11 38 11 28 -112 54 -180 37z"/>
<path d="M3970 498 c0 -128 -3 -243 -6 -256 l-6 -22 139 0 c160 0 218 13 277
62 88 72 114 222 58 329 -20 39 -41 62 -77 84 -48 30 -49 30 -217 33 l-168 4
0 -234z m303 167 c111 -53 133 -251 38 -346 -42 -42 -91 -59 -173 -59 -94 0
-88 -16 -88 222 l0 210 93 -4 c62 -3 105 -10 130 -23z"/>
<path d="M4561 473 l-1 -253 140 0 140 0 0 25 0 25 -100 0 -100 0 0 101 0 102
90 -5 90 -5 0 26 0 26 -85 -4 -85 -3 0 70 c0 39 -3 78 -6 87 -6 15 2 17 90 14
68 -3 96 -1 96 8 0 6 2 18 6 26 4 12 -17 14 -135 13 l-139 -1 -1 -252z"/>
<path d="M4930 475 l0 -255 46 0 47 0 -6 109 -5 108 63 7 c126 13 185 60 185
147 0 111 -43 139 -214 139 l-116 0 0 -255z m199 200 c16 -8 34 -28 40 -45 22
-65 -13 -124 -86 -141 -76 -17 -73 -21 -73 96 l0 105 45 0 c26 0 59 -7 74 -15z"/>
<path d="M5330 548 c0 -101 5 -200 10 -220 35 -123 264 -163 365 -63 45 46 52
78 60 288 l6 177 -33 0 -33 0 0 -182 c0 -165 -2 -186 -20 -217 -56 -94 -200
-93 -252 1 -15 28 -18 59 -18 216 l0 182 -42 0 -43 0 0 -182z"/>
<path d="M5880 475 l0 -255 43 0 42 0 0 255 0 255 -42 0 -43 0 0 -255z"/>
<path d="M6766 704 c-21 -15 -72 -42 -112 -61 -41 -18 -74 -37 -74 -41 0 -4 9
-13 19 -19 17 -11 29 -7 78 23 l58 35 3 -211 2 -210 40 0 40 0 0 255 c0 140
-3 255 -8 255 -4 0 -25 -12 -46 -26z"/>
<path d="M7037 716 c-51 -19 -65 -32 -78 -77 -15 -48 2 -94 42 -118 l28 -17
-34 -18 c-61 -33 -83 -121 -48 -193 30 -64 117 -95 207 -72 58 14 115 74 117
122 3 85 -15 128 -61 147 -16 7 -30 14 -30 16 0 3 14 17 32 33 27 24 31 35 31
75 0 55 -27 91 -82 106 -47 13 -78 12 -124 -4z m106 -43 c49 -55 18 -153 -48
-153 -29 0 -65 46 -65 83 0 70 72 114 113 70z m16 -217 c47 -50 33 -172 -23
-197 -95 -44 -167 104 -95 195 28 35 86 36 118 2z"/>
<path d="M7426 551 c-64 -94 -116 -175 -116 -180 0 -7 40 -11 110 -11 l110 0
0 -70 0 -70 40 0 40 0 -7 72 -6 71 36 -6 c36 -6 37 -5 37 24 0 27 -3 29 -36
29 l-37 0 5 155 6 155 -34 0 c-31 0 -38 -8 -148 -169z m104 -36 l0 -105 -70 0
c-38 0 -70 3 -70 6 0 6 133 204 137 204 2 0 3 -47 3 -105z"/>
<path d="M7748 598 c4 -154 4 -153 41 -133 48 24 88 19 123 -15 28 -29 30 -35
26 -86 -6 -68 -36 -103 -95 -111 -35 -5 -45 -1 -77 27 -20 18 -38 31 -40 29
-2 -2 -6 -18 -9 -35 -5 -27 -2 -33 21 -43 80 -37 185 -20 243 38 112 112 19
282 -138 252 l-43 -8 0 68 0 69 99 0 99 0 4 35 4 35 -131 0 -130 0 3 -122z"/>
</g>
</svg>
