<?xml version="1.0" standalone="no"?>
<!DOCTYPE svg PUBLIC "-//W3C//DTD SVG 20010904//EN"
 "http://www.w3.org/TR/2001/REC-SVG-20010904/DTD/svg10.dtd">
<svg version="1.0" xmlns="http://www.w3.org/2000/svg"
 width="1213.000000pt" height="221.000000pt" viewBox="0 0 1213.000000 221.000000"
 preserveAspectRatio="xMidYMid meet">

<g transform="translate(0.000000,221.000000) scale(0.100000,-0.100000)"
fill="#94a3b8" stroke="none">
<path d="M4605 2190 c-354 -80 -612 -303 -735 -632 -53 -144 -65 -222 -65
-443 0 -165 4 -228 18 -295 97 -454 372 -703 877 -792 51 -9 164 -13 350 -13
301 1 476 17 668 60 l22 5 0 548 c0 348 -4 561 -11 584 -18 67 -23 68 -419 68
l-350 0 0 -220 0 -220 130 0 130 0 0 -189 0 -189 -107 -7 c-272 -19 -441 30
-573 164 -119 120 -170 270 -170 494 0 159 19 256 71 365 137 284 457 364 889
222 63 -21 118 -36 121 -34 8 4 209 349 209 357 0 13 -136 81 -225 113 -172
61 -264 74 -522 73 -182 -1 -244 -4 -308 -19z"/>
<path d="M8841 2195 c-145 -32 -281 -94 -398 -182 -173 -130 -298 -330 -359
-577 -35 -137 -44 -393 -20 -541 92 -555 481 -885 1047 -885 538 0 920 335
1010 885 20 126 16 370 -10 493 -73 348 -253 595 -535 732 -155 76 -231 90
-471 89 -130 0 -222 -5 -264 -14z m443 -464 c119 -58 206 -180 252 -356 29
-108 26 -419 -4 -530 -66 -238 -197 -368 -384 -382 -308 -23 -499 191 -524
586 -18 302 70 544 238 652 119 77 301 90 422 30z"/>
<path d="M11014 2186 c-191 -50 -294 -106 -409 -221 -125 -125 -177 -252 -178
-435 0 -199 77 -345 242 -454 97 -65 206 -109 456 -183 121 -36 248 -78 281
-94 112 -53 153 -127 119 -214 -28 -74 -98 -109 -244 -121 -159 -12 -377 43
-591 151 l-106 53 -118 -209 c-65 -115 -116 -215 -113 -222 6 -15 144 -85 242
-122 96 -36 282 -81 399 -95 122 -16 373 -7 476 15 373 83 608 333 627 668 9
166 -32 284 -136 387 -105 105 -238 169 -553 266 -194 59 -317 110 -356 147
-97 90 -54 213 90 264 41 14 81 18 178 17 110 0 135 -4 205 -28 44 -15 119
-48 168 -73 52 -27 92 -42 95 -36 4 5 69 80 146 166 158 180 155 162 39 238
-83 54 -183 98 -298 130 -71 20 -107 23 -325 26 -232 3 -250 1 -336 -21z"/>
<path d="M50 1115 l0 -1065 270 0 270 0 2 612 3 611 257 -609 256 -609 149 -3
148 -2 260 607 260 607 3 -607 2 -607 275 0 275 0 0 1065 0 1065 -338 0 -339
0 -12 -27 c-14 -31 -475 -1088 -498 -1143 l-15 -34 -250 602 -251 602 -363 0
-364 0 0 -1065z"/>
<path d="M2900 1115 l0 -1065 270 0 270 0 0 1040 0 1041 -25 24 -24 25 -246 0
-245 0 0 -1065z"/>
<path d="M6177 2152 l-27 -28 0 -1037 0 -1037 265 0 265 0 0 380 0 380 144 0
c215 0 191 26 398 -452 l133 -308 287 0 288 0 -19 47 c-11 27 -67 170 -126
318 -59 149 -124 304 -146 345 -52 102 -126 190 -198 238 l-59 39 38 12 c104
31 216 132 268 244 109 230 69 559 -86 715 -57 56 -163 113 -256 137 -117 29
-227 35 -681 35 l-461 0 -27 -28z m893 -393 c67 -15 114 -51 141 -106 20 -39
24 -63 23 -134 0 -108 -32 -183 -97 -227 -68 -47 -97 -52 -283 -52 l-174 0 0
265 0 265 173 0 c94 0 192 -5 217 -11z"/>
</g>
</svg>
