<?xml version="1.0" standalone="no"?>
<!DOCTYPE svg PUBLIC "-//W3C//DTD SVG 20010904//EN"
 "http://www.w3.org/TR/2001/REC-SVG-20010904/DTD/svg10.dtd">
<svg version="1.0" xmlns="http://www.w3.org/2000/svg"
 width="800.000000pt" height="828.000000pt" viewBox="0 0 800.000000 828.000000"
 preserveAspectRatio="xMidYMid meet">

<g transform="translate(0.000000,828.000000) scale(0.100000,-0.100000)"
fill="#94a3b8" stroke="none">
<path d="M262 8265 c-108 -30 -177 -86 -224 -183 -29 -59 -33 -76 -33 -152 0
-104 22 -155 100 -233 45 -45 53 -58 58 -99 7 -73 59 -171 124 -237 67 -66
143 -107 231 -123 53 -10 63 -15 73 -40 6 -16 29 -39 50 -51 22 -12 39 -24 39
-27 0 -3 -47 -11 -104 -18 -57 -6 -132 -21 -167 -32 -124 -42 -220 -126 -235
-207 -4 -22 -15 -38 -33 -47 -37 -20 -85 -73 -112 -126 -20 -37 -24 -60 -24
-130 1 -72 5 -95 28 -145 46 -100 116 -160 223 -191 77 -22 167 -15 238 20 49
24 58 26 103 16 109 -25 238 13 317 94 38 39 50 46 83 46 97 0 222 84 271 183
44 89 22 118 -44 57 -72 -67 -188 -110 -293 -110 -31 0 -45 -8 -81 -46 -65
-67 -112 -88 -190 -88 -46 0 -79 6 -113 22 l-49 22 -34 -27 c-41 -31 -114 -41
-167 -24 -106 35 -155 152 -108 256 17 38 72 95 90 95 5 0 14 21 22 47 32 114
176 193 353 193 55 0 66 3 87 26 30 33 91 61 160 74 48 9 68 22 69 42 0 14
-32 38 -50 38 -39 0 -129 42 -172 80 -25 21 -55 59 -68 83 -23 42 -26 45 -76
50 -75 8 -153 49 -213 112 -61 64 -90 125 -98 200 -5 47 -10 57 -38 76 -69 48
-102 142 -76 221 22 67 109 128 183 128 36 0 96 -25 125 -52 19 -17 36 -20
120 -22 85 -1 106 -5 161 -30 97 -45 165 -128 198 -243 2 -7 16 -15 31 -18
101 -22 177 -88 210 -180 11 -33 26 -79 32 -102 9 -32 17 -43 31 -43 15 0 24
17 44 83 15 48 38 97 55 118 19 23 33 55 40 94 15 81 47 142 103 197 51 50
134 88 192 88 25 0 36 6 47 27 8 14 34 39 58 55 74 47 187 33 243 -29 26 -29
48 -88 48 -130 0 -42 -28 -111 -53 -131 -13 -12 -15 -27 -10 -92 5 -72 4 -84
-21 -134 -29 -58 -83 -107 -143 -127 -18 -6 -33 -16 -33 -22 0 -7 -13 -40 -29
-74 -35 -74 -94 -133 -166 -169 -105 -51 -99 -79 14 -72 131 8 249 87 279 185
9 30 20 43 48 56 61 29 139 112 170 180 24 52 29 75 29 143 0 61 4 87 16 100
41 47 54 88 54 174 0 73 -4 93 -28 141 -34 69 -100 132 -175 167 -47 22 -71
26 -138 26 -72 0 -90 -4 -147 -32 -38 -19 -81 -50 -100 -72 -25 -29 -45 -42
-81 -50 -92 -20 -174 -79 -232 -164 -38 -56 -74 -159 -74 -212 0 -43 -16 -44
-33 -1 -18 43 -78 94 -125 106 -33 9 -41 18 -73 83 -49 98 -115 170 -192 208
-73 35 -165 54 -225 46 -36 -5 -49 -2 -76 19 -83 63 -198 87 -294 60z"/>
<path d="M4345 8266 c-142 -27 -264 -94 -357 -195 -61 -66 -99 -132 -133 -231
-13 -39 -72 -150 -134 -254 -61 -101 -113 -191 -117 -200 -5 -14 8 -16 120
-16 69 0 126 -1 126 -3 0 -2 -26 -52 -58 -112 -33 -61 -58 -111 -57 -113 2 -2
54 7 116 20 86 17 148 23 254 23 127 0 145 -2 187 -23 90 -44 111 -97 153
-382 38 -257 80 -469 116 -574 97 -290 313 -570 647 -839 80 -65 122 -83 122
-52 0 8 -43 61 -96 118 -219 232 -388 485 -483 722 -65 162 -88 268 -136 625
-48 362 -88 451 -230 516 -51 24 -76 28 -170 32 -66 2 -141 -2 -187 -11 -43
-7 -78 -11 -78 -9 0 2 23 41 50 87 28 46 50 86 50 89 0 3 -40 6 -90 6 -49 0
-90 3 -90 6 0 3 24 47 54 97 29 51 61 117 71 147 65 199 187 318 367 356 131
28 272 1 405 -77 72 -43 232 -201 348 -344 144 -178 214 -252 299 -318 242
-188 336 -270 476 -413 270 -277 447 -508 769 -1007 453 -701 815 -1383 1062
-2001 44 -109 78 -200 76 -202 -6 -6 -497 338 -732 515 -816 611 -1339 1180
-1755 1906 -88 155 -247 469 -306 608 -23 55 -33 67 -49 65 -26 -4 -24 -36 11
-178 70 -284 227 -625 427 -925 364 -547 1005 -1192 1695 -1704 61 -45 113
-89 117 -99 45 -115 309 -886 312 -914 7 -50 -16 -61 -124 -56 -73 3 -86 6
-101 26 -9 12 -68 171 -131 353 -64 185 -121 333 -128 336 -38 15 -35 -18 36
-365 39 -192 71 -357 71 -367 0 -27 -149 -175 -177 -175 -33 0 -44 31 -104
295 -89 400 -266 1097 -281 1106 -21 14 -33 5 -36 -28 -6 -64 218 -1395 254
-1504 26 -81 91 -119 168 -98 29 8 67 37 148 115 60 58 124 112 143 120 25 10
77 14 186 14 165 0 203 9 235 57 40 62 30 100 -219 783 -35 96 -63 177 -61
179 2 2 20 -10 41 -27 21 -16 90 -64 154 -105 271 -179 409 -213 409 -102 0
232 -318 964 -743 1710 -235 414 -585 968 -785 1245 -228 316 -526 630 -817
863 -190 151 -277 236 -421 412 -181 222 -335 357 -477 420 -127 56 -285 75
-412 51z"/>
<path d="M6840 8102 c0 -32 -390 -637 -539 -836 l-81 -108 40 -48 c66 -79 62
-79 115 -10 26 34 100 143 164 242 64 100 121 183 127 185 7 2 14 -20 17 -57
18 -164 113 -244 288 -243 101 1 250 38 499 124 113 39 240 82 283 97 l77 26
0 83 c0 46 -2 83 -5 83 -2 0 -126 -43 -274 -95 -300 -105 -414 -139 -513 -155
-164 -25 -222 36 -198 212 13 96 70 275 129 404 22 51 41 94 41 98 0 3 -38 6
-85 6 -47 0 -85 -4 -85 -8z"/>
<path d="M4225 7837 c-24 -24 -35 -46 -40 -79 -20 -130 89 -145 213 -30 62 57
54 91 -31 127 -61 25 -104 20 -142 -18z"/>
<path d="M507 7803 c-4 -3 -7 -10 -7 -14 0 -8 434 -377 448 -382 5 -1 21 13
37 31 l28 33 -64 65 c-91 93 -206 177 -313 229 -90 44 -116 52 -129 38z"/>
<path d="M1697 7717 c-51 -51 -114 -125 -140 -163 -47 -71 -107 -189 -107
-211 0 -6 15 -20 34 -31 l35 -21 69 107 c178 273 242 378 242 395 0 39 -42 15
-133 -76z"/>
<path d="M2720 7733 c-96 -15 -240 -96 -292 -165 -47 -62 -87 -155 -129 -304
-77 -272 -107 -325 -325 -579 -214 -251 -290 -360 -395 -567 -42 -84 -169
-371 -169 -383 0 -2 40 -2 90 0 l90 3 115 229 c140 280 214 394 384 597 73 87
158 192 189 234 79 110 144 254 187 412 59 220 93 278 196 329 108 54 194 51
354 -11 61 -24 97 -31 152 -32 40 -1 73 -2 73 -4 0 -2 -21 -30 -46 -63 -25
-32 -43 -63 -40 -68 3 -4 30 -25 61 -46 30 -21 55 -41 55 -44 0 -3 -21 -15
-47 -25 -69 -29 -162 -127 -208 -219 -20 -41 -34 -80 -31 -86 15 -24 45 -7
117 67 83 86 169 137 316 188 46 16 83 32 83 35 0 4 -44 39 -97 79 -54 40
-100 74 -102 76 -2 2 31 53 73 114 42 61 76 113 76 115 0 3 -35 5 -77 5 -149
1 -242 16 -329 54 -133 58 -224 75 -324 59z"/>
<path d="M2813 7434 c-55 -28 -81 -114 -47 -162 40 -57 204 14 204 89 0 27
-48 79 -73 79 -7 0 -21 2 -32 5 -11 3 -34 -2 -52 -11z"/>
<path d="M7980 7292 c-8 -2 -121 -46 -250 -97 -322 -128 -611 -255 -888 -391
l-233 -115 37 -52 c21 -29 42 -57 48 -64 8 -9 42 -1 141 32 169 58 274 75 449
75 146 0 339 19 461 45 38 8 73 15 77 15 5 0 8 29 8 65 0 36 -2 65 -5 65 -3 0
-72 -12 -153 -26 -195 -34 -310 -41 -337 -21 -16 12 -17 18 -7 30 13 15 237
109 507 213 83 31 154 60 158 64 4 4 7 43 5 87 -2 65 -6 79 -18 75z"/>
<path d="M1267 7122 c-15 -15 -27 -31 -27 -34 0 -3 25 -46 56 -94 31 -49 100
-178 155 -288 54 -109 100 -200 102 -202 2 -3 27 27 56 65 l52 70 -25 48 c-33
66 -152 245 -215 322 -55 68 -119 141 -124 141 -2 0 -15 -13 -30 -28z"/>
<path d="M968 6880 c-158 -36 -288 -92 -403 -173 -60 -43 -75 -69 -44 -75 14
-2 546 171 556 182 4 4 -18 69 -26 77 -3 3 -41 -2 -83 -11z"/>
<path d="M3550 6839 c-102 -22 -221 -23 -310 -4 -242 53 -464 -46 -559 -250
-37 -78 -48 -127 -61 -265 -12 -127 -31 -207 -63 -260 -12 -19 -74 -108 -139
-196 -118 -163 -224 -322 -217 -328 15 -11 142 -76 144 -74 8 8 237 337 298
427 113 169 126 204 142 383 7 84 20 172 29 196 35 97 116 175 214 207 53 18
82 18 287 0 50 -5 84 -2 120 9 27 8 50 14 52 12 2 -2 -10 -34 -26 -72 -16 -38
-27 -72 -23 -75 4 -3 36 -18 72 -33 l65 -27 -60 -62 c-191 -197 -271 -449
-231 -724 20 -136 33 -175 55 -171 12 3 18 21 23 78 31 313 40 354 108 495 70
145 180 279 309 376 l34 25 -113 49 c-62 27 -114 54 -116 60 -2 5 18 63 45
128 57 135 63 127 -79 96z"/>
<path d="M3121 6545 c-51 -44 -52 -148 -1 -175 46 -25 170 64 170 122 0 69
-108 103 -169 53z"/>
<path d="M1215 6103 c-264 -17 -550 -95 -689 -188 -102 -67 -126 -131 -89
-235 16 -45 16 -52 0 -127 -32 -147 -20 -201 77 -343 56 -81 58 -86 51 -130
-3 -25 -10 -68 -14 -97 -24 -168 40 -295 282 -552 38 -40 65 -77 60 -81 -4 -5
-42 -22 -83 -38 -241 -96 -564 -240 -622 -278 -153 -102 -191 -200 -186 -479
l3 -150 44 -3 c53 -4 95 12 109 41 6 12 13 90 15 172 3 122 7 158 24 195 24
55 73 104 133 135 74 38 831 352 889 369 76 22 178 21 253 -5 142 -48 328
-163 457 -285 l80 -75 53 41 c29 23 54 46 56 50 5 13 -139 147 -231 215 -159
116 -319 197 -446 223 -73 15 -83 15 -167 -3 -198 -41 -213 -37 -329 88 -109
119 -180 209 -207 261 -22 43 -30 138 -13 155 6 6 36 -7 82 -35 39 -25 113
-60 165 -78 93 -34 233 -64 244 -54 3 4 0 33 -6 66 l-12 61 -55 17 c-194 61
-435 242 -503 377 -32 64 -36 96 -19 145 l11 31 46 -33 c102 -73 289 -149 405
-165 72 -10 144 1 233 35 158 60 211 65 362 34 109 -22 193 -49 363 -117 84
-33 124 -44 143 -39 26 6 66 58 66 84 0 14 -206 116 -338 166 -176 67 -276 90
-392 90 -99 0 -111 -2 -213 -42 -121 -47 -181 -53 -281 -27 -210 55 -386 172
-386 258 0 85 185 164 477 202 70 10 137 19 149 21 14 2 28 21 45 61 13 32 26
61 27 65 4 8 -19 8 -123 1z"/>
<path d="M3732 6068 c-5 -7 -21 -37 -36 -65 l-26 -53 360 0 360 0 -16 38 c-9
20 -20 49 -26 65 l-10 27 -298 0 c-226 0 -300 -3 -308 -12z"/>
<path d="M6043 5853 c-8 -21 31 -95 131 -246 121 -183 223 -305 401 -482 199
-198 568 -494 618 -495 42 0 12 43 -110 156 -234 220 -675 689 -891 947 -63
75 -121 137 -129 137 -7 0 -17 -7 -20 -17z"/>
<path d="M4635 5447 c-215 -77 -381 -88 -725 -48 -330 39 -532 12 -699 -94
l-42 -26 32 -42 c18 -23 36 -46 39 -50 4 -4 41 3 82 17 176 59 351 69 628 36
285 -34 445 -25 628 36 85 28 232 94 232 103 0 4 -21 27 -47 52 l-48 45 -80
-29z"/>
<path d="M2795 5341 c-260 -113 -460 -256 -519 -370 -28 -54 -31 -121 -8 -173
41 -93 142 -135 307 -125 179 11 375 73 628 199 151 75 145 67 93 126 -30 34
-68 28 -213 -38 -240 -109 -433 -160 -560 -147 -67 7 -99 27 -108 67 -20 91
139 214 453 351 67 29 122 56 122 60 0 10 -70 99 -78 98 -4 0 -56 -22 -117
-48z"/>
<path d="M4840 5163 c-264 -336 -438 -508 -528 -520 -76 -10 -109 59 -119 251
l-6 108 -71 -6 c-216 -20 -469 -97 -729 -223 -171 -84 -178 -88 -172 -112 18
-77 27 -102 34 -99 4 2 72 35 151 75 202 100 382 157 586 187 l41 6 7 -60 c28
-245 173 -357 351 -271 69 33 175 121 258 215 111 125 394 484 386 489 -2 2
-23 18 -45 35 -23 18 -46 32 -51 32 -5 0 -47 -48 -93 -107z"/>
<path d="M1425 5201 c-33 -9 -93 -30 -132 -46 -77 -30 -83 -38 -63 -89 17 -46
45 -50 144 -22 150 44 223 33 288 -43 35 -42 90 -136 102 -178 6 -19 2 -23
-31 -33 -21 -5 -118 -16 -215 -22 l-177 -12 5 -25 c14 -65 26 -81 68 -92 50
-14 268 -5 371 16 l70 13 25 -31 c218 -281 512 -381 852 -292 103 26 134 38
261 97 51 25 87 47 87 56 0 20 -22 95 -30 105 -4 5 -44 -10 -90 -33 -110 -55
-266 -106 -369 -120 -199 -27 -365 32 -502 177 -70 74 -106 130 -197 308 -118
229 -183 285 -332 284 -41 0 -102 -8 -135 -18z"/>
<path d="M5237 5007 c-194 -108 -398 -312 -576 -576 -99 -144 -166 -208 -275
-261 -67 -32 -297 -110 -325 -110 -4 0 -31 48 -60 107 -45 89 -67 120 -135
188 -64 65 -93 87 -139 104 -111 41 -220 22 -455 -78 -142 -61 -425 -200 -494
-243 l-37 -23 39 -51 39 -51 138 68 c314 153 523 231 624 233 57 1 72 -3 115
-29 56 -35 110 -102 155 -194 25 -51 29 -65 18 -72 -8 -5 -17 -9 -20 -9 -3 0
-53 -7 -110 -15 -58 -8 -190 -19 -295 -25 -104 -6 -199 -13 -211 -15 -25 -6
-47 -41 -58 -92 l-7 -33 139 0 c472 0 934 87 1216 228 84 43 98 47 133 39 71
-15 212 -3 299 27 100 34 234 108 291 162 43 40 44 41 44 107 0 41 -4 67 -11
67 -6 0 -29 -15 -52 -34 -68 -55 -184 -126 -250 -153 -45 -19 -87 -27 -154
-31 -51 -2 -93 -1 -93 3 0 14 166 260 228 336 106 131 227 236 381 328 l82 50
-60 40 c-33 23 -61 41 -63 41 -2 0 -29 -15 -61 -33z"/>
<path d="M5738 4677 c-226 -443 -673 -852 -1052 -961 -131 -38 -251 -46 -722
-46 -534 0 -628 -9 -899 -87 -119 -34 -271 -42 -370 -19 -89 21 -200 75 -254
123 l-44 39 74 59 c41 32 76 60 78 61 2 2 -15 26 -37 54 l-40 50 -219 -162
c-120 -89 -280 -208 -355 -265 -76 -56 -140 -103 -143 -103 -3 0 -2 17 1 39 9
59 -14 209 -43 273 -35 78 -108 145 -214 197 -47 22 -92 41 -99 41 -8 0 -45
-19 -84 -42 l-70 -41 54 -19 c175 -59 274 -139 304 -246 32 -115 17 -265 -34
-346 -58 -91 -216 -162 -384 -173 -114 -8 -136 -24 -136 -104 l0 -52 105 6
c252 14 321 50 759 392 187 146 342 265 345 265 4 0 29 -18 56 -41 76 -63 171
-115 275 -150 83 -28 112 -33 225 -37 130 -4 133 -4 340 47 126 30 254 55 320
61 61 5 310 10 554 10 589 0 670 12 913 136 323 166 604 422 814 745 60 92
165 288 164 305 -1 9 -115 84 -128 84 -4 0 -28 -42 -54 -93z"/>
<path d="M7215 2109 c-319 -32 -590 -63 -603 -68 -29 -14 -42 -49 -42 -117 0
-45 4 -59 25 -79 l24 -25 626 0 c710 0 685 -3 706 72 13 49 6 207 -12 239 -13
26 -50 39 -102 38 -23 -1 -303 -27 -622 -60z"/>
<path d="M55 2118 c-57 -45 -55 -7 -55 -1030 0 -895 1 -945 18 -977 30 -56 71
-71 187 -71 112 0 153 14 189 63 21 28 21 40 26 710 l5 681 169 -299 c492
-872 591 -1042 630 -1083 57 -60 105 -72 280 -72 156 0 191 10 230 63 21 28
21 37 24 873 l2 844 1496 2 1496 3 24 28 c22 26 24 37 24 127 0 90 -2 101 -24
127 l-24 28 -1649 3 c-1554 2 -1650 1 -1682 -15 -19 -10 -44 -31 -55 -46 -21
-28 -21 -41 -26 -693 l-5 -665 -370 657 c-203 362 -383 674 -399 693 -56 63
-88 71 -297 71 -176 0 -188 -1 -214 -22z"/>
<path d="M5113 2121 c-56 -35 -58 -44 -61 -318 l-4 -253 -58 0 c-91 0 -104
-16 -109 -129 -2 -71 1 -97 13 -116 17 -25 70 -45 122 -45 l32 0 5 -407 c3
-257 9 -424 16 -452 42 -161 159 -285 316 -334 58 -18 94 -22 218 -22 l149 0
24 28 c22 26 24 37 24 125 0 71 -4 103 -15 119 -18 25 -71 43 -130 43 -83 1
-163 61 -185 138 -6 22 -10 181 -10 399 l0 361 151 4 151 3 24 28 c22 25 24
37 24 118 0 82 -2 92 -25 114 -23 24 -28 25 -174 25 l-150 0 -3 260 -3 260
-33 32 -32 33 -123 3 c-107 2 -126 0 -154 -17z"/>
<path d="M5983 2125 c-66 -29 -63 27 -63 -1035 0 -1066 -4 -1007 65 -1036 48
-20 236 -19 279 1 70 34 66 -34 66 1035 0 1061 4 1002 -64 1034 -44 21 -235
22 -283 1z"/>
<path d="M2547 1599 c-299 -41 -529 -243 -618 -544 -30 -101 -37 -294 -15
-406 59 -291 241 -508 496 -593 211 -70 439 -53 648 50 120 58 214 145 266
243 47 90 56 151 27 180 -19 19 -32 21 -167 21 -84 0 -154 -5 -165 -11 -11 -6
-50 -41 -87 -78 -83 -84 -136 -105 -262 -105 -63 0 -99 6 -142 23 -107 42
-195 153 -214 269 l-7 42 514 0 c391 0 520 3 539 13 48 24 62 70 56 182 -7
131 -27 208 -87 333 -114 237 -329 370 -622 386 -51 2 -123 0 -160 -5z m273
-340 c100 -46 166 -125 188 -227 l10 -42 -355 0 -355 0 7 33 c25 117 114 216
228 253 69 22 210 13 277 -17z"/>
<path d="M4050 1599 c-146 -17 -303 -82 -383 -157 -84 -79 -127 -183 -127
-308 0 -115 24 -177 103 -260 88 -95 166 -129 463 -205 131 -34 255 -69 276
-80 44 -23 68 -54 68 -91 0 -100 -92 -158 -251 -158 -154 0 -241 38 -304 133
-20 30 -47 59 -61 66 -14 6 -79 11 -153 11 -163 0 -176 -8 -176 -98 1 -172
183 -341 443 -409 123 -32 321 -36 447 -9 219 48 376 160 436 313 18 46 22 78
22 158 0 131 -22 192 -104 280 -83 88 -157 122 -404 185 -315 81 -335 88 -372
125 -38 38 -42 73 -15 125 23 42 71 68 153 81 146 23 280 -23 335 -116 13 -23
35 -47 49 -53 15 -7 77 -12 150 -12 150 0 165 8 165 88 0 110 -106 243 -251
315 -133 66 -340 97 -509 76z"/>
<path d="M7119 1600 c-482 -67 -763 -568 -598 -1065 42 -126 98 -216 193 -310
147 -145 304 -207 526 -208 195 0 354 47 496 149 111 78 204 221 204 311 0 67
-16 73 -194 73 l-149 0 -66 -69 c-74 -77 -119 -103 -206 -121 -193 -40 -394
82 -430 260 -3 19 -9 43 -11 53 -5 16 24 17 513 17 496 0 519 1 550 20 43 26
57 80 49 188 -29 349 -229 603 -538 682 -93 23 -248 32 -339 20z m283 -343
c73 -36 139 -108 167 -180 35 -95 66 -87 -329 -87 -399 0 -368 -8 -331 90 53
141 173 212 347 207 74 -2 100 -8 146 -30z"/>
</g>
</svg>
