<?xml version="1.0" standalone="no"?>
<!DOCTYPE svg PUBLIC "-//W3C//DTD SVG 20010904//EN"
 "http://www.w3.org/TR/2001/REC-SVG-20010904/DTD/svg10.dtd">
<svg version="1.0" xmlns="http://www.w3.org/2000/svg"
 width="2410.000000pt" height="401.000000pt" viewBox="0 0 2410.000000 401.000000"
 preserveAspectRatio="xMidYMid meet">

<g transform="translate(0.000000,401.000000) scale(0.100000,-0.100000)"
fill="#94a3b8" stroke="none">
<path d="M1315 3858 c-666 -67 -1136 -419 -1215 -911 -18 -112 -8 -350 20
-452 48 -176 135 -322 274 -460 175 -174 306 -247 840 -475 208 -88 408 -176
445 -195 134 -68 201 -156 201 -265 0 -123 -61 -215 -183 -274 -112 -55 -201
-69 -427 -69 -241 0 -459 27 -710 89 -69 17 -358 100 -385 110 -14 6 -15 -33
-13 -367 l3 -373 167 -37 c325 -72 586 -99 970 -99 264 0 381 9 544 40 544
106 932 411 1043 821 114 421 -14 805 -363 1085 -155 124 -239 169 -1126 602
-215 104 -290 182 -290 298 0 97 71 181 206 245 233 111 673 79 1169 -86 71
-23 138 -46 148 -50 16 -7 17 14 17 349 0 196 -2 356 -4 356 -2 0 -57 11 -122
24 -437 89 -901 125 -1209 94z"/>
<path d="M22335 3859 c-539 -58 -957 -297 -1135 -649 -132 -261 -128 -625 11
-905 105 -212 301 -394 581 -540 57 -29 274 -126 482 -215 410 -174 474 -204
535 -256 145 -124 111 -361 -65 -456 -252 -136 -819 -106 -1414 76 -63 19
-123 38 -133 41 -16 7 -17 -13 -15 -366 l3 -373 95 -22 c137 -33 355 -72 500
-90 170 -21 721 -30 871 -15 429 44 765 186 999 420 177 177 265 368 291 627
27 264 -41 495 -207 703 -151 187 -311 295 -784 528 -195 97 -384 189 -420
205 -238 109 -339 177 -380 259 -43 84 -17 196 63 265 160 139 444 175 842
105 173 -30 438 -104 598 -166 16 -7 17 14 17 349 0 196 -2 356 -4 356 -2 0
-57 11 -122 24 -157 32 -348 62 -514 82 -163 19 -570 26 -695 13z"/>
<path d="M3420 1975 l0 -1835 540 0 540 0 0 1835 0 1835 -540 0 -540 0 0
-1835z"/>
<path d="M5350 1975 l0 -1835 1345 0 1345 0 0 355 0 355 -825 0 -825 0 2 428
3 427 703 3 702 2 -2 303 -3 302 -702 3 -703 2 0 405 0 405 810 0 810 0 0 340
0 340 -1330 0 -1330 0 0 -1835z"/>
<path d="M8645 3798 c-3 -7 -4 -832 -3 -1833 l3 -1820 367 -3 368 -2 2 1202 3
1203 494 -1195 c272 -657 499 -1205 504 -1218 l10 -22 315 2 316 3 520 1210
521 1211 5 -1196 5 -1195 508 -3 507 -2 0 1835 0 1835 -631 -2 -630 -3 -472
-1117 c-260 -615 -474 -1117 -477 -1117 -3 0 -208 502 -456 1117 l-451 1117
-662 3 c-524 2 -663 0 -666 -10z"/>
<path d="M13937 3803 c-4 -3 -7 -829 -7 -1835 l0 -1828 1350 0 1350 0 0 355 0
355 -820 0 -820 0 0 430 0 430 700 0 700 0 0 305 0 305 -700 0 -700 0 0 405 0
405 805 0 805 0 -2 338 -3 337 -1326 3 c-729 1 -1329 -1 -1332 -5z"/>
<path d="M17230 1975 l0 -1835 365 0 365 0 1 1173 c0 1078 1 1170 16 1149 9
-13 301 -539 648 -1170 l633 -1147 576 -3 576 -2 0 1835 0 1835 -365 0 -365 0
0 -1152 c0 -645 -4 -1148 -9 -1142 -4 5 -279 506 -611 1114 -331 608 -613
1122 -626 1143 l-24 37 -590 0 -590 0 0 -1835z"/>
</g>
</svg>
