<?xml version="1.0" standalone="no"?>
<!DOCTYPE svg PUBLIC "-//W3C//DTD SVG 20010904//EN"
 "http://www.w3.org/TR/2001/REC-SVG-20010904/DTD/svg10.dtd">
<svg version="1.0" xmlns="http://www.w3.org/2000/svg"
 width="2159.000000pt" height="589.000000pt" viewBox="0 0 2159.000000 589.000000"
 preserveAspectRatio="xMidYMid meet">

<g transform="translate(0.000000,589.000000) scale(0.100000,-0.100000)"
fill="#94a3b8" stroke="none">
<path d="M1814 5545 c-40 -7 -89 -18 -110 -25 -64 -21 -175 -79 -232 -122 -54
-40 -54 -40 -48 -83 l7 -43 -153 -112 c-497 -367 -657 -496 -833 -674 -151
-151 -240 -270 -310 -411 -75 -153 -89 -211 -89 -370 0 -105 4 -146 22 -210
69 -242 196 -401 587 -738 116 -100 280 -251 365 -336 85 -85 134 -136 109
-112 l-47 43 -24 -34 c-14 -18 -33 -45 -42 -60 l-17 -26 41 -7 c103 -17 181
-112 181 -219 0 -166 -172 -275 -315 -201 -16 8 -31 15 -34 15 -13 0 10 -163
33 -233 119 -364 483 -697 998 -912 l67 -28 0 -294 0 -293 35 0 c54 0 249 29
380 57 287 60 612 172 855 296 693 351 1078 864 1107 1473 8 172 -12 304 -74
467 -20 53 -29 67 -42 63 -107 -35 -165 -46 -244 -46 -169 0 -286 49 -408 170
-79 78 -139 181 -154 262 -4 23 -11 35 -18 31 -7 -4 -8 0 -3 13 26 66 100 290
120 364 l24 88 -23 22 -24 23 -52 -47 c-354 -318 -919 -208 -1129 219 -22 44
-47 107 -55 140 -47 183 -18 394 76 549 l37 61 -21 24 c-12 13 19 -9 68 -51
50 -41 256 -209 458 -373 203 -164 435 -355 517 -426 l149 -129 10 38 c33 125
46 264 45 482 0 247 -13 338 -75 523 -153 460 -519 795 -998 915 -91 22 -127
26 -261 26 -141 1 -162 -2 -227 -25 l-73 -25 0 96 c0 54 -3 125 -6 159 l-7 61
-36 -1 c-20 0 -68 -7 -107 -14z m236 -980 c19 -19 32 -35 29 -35 -3 0 -20 16
-39 35 -19 19 -32 35 -29 35 3 0 20 -16 39 -35z m115 -105 c21 -22 37 -40 34
-40 -3 0 -23 18 -44 40 -21 22 -37 40 -34 40 3 0 23 -18 44 -40z m81 -72 l29
-33 -32 29 c-31 28 -38 36 -30 36 2 0 16 -15 33 -32z m64 -53 c13 -14 21 -25
18 -25 -2 0 -15 11 -28 25 -13 14 -21 25 -18 25 2 0 15 -11 28 -25z m-340
-1319 l0 -1335 -28 8 c-58 17 -129 61 -169 104 -75 81 -107 166 -157 412 -60
296 -95 344 -423 579 -149 106 -239 195 -278 273 -23 47 -29 75 -33 145 -10
197 62 282 329 388 160 63 232 105 287 164 49 53 70 94 128 242 72 186 97 227
180 290 33 26 122 63 152 64 9 0 12 -273 12 -1334z m1421 -223 c-12 -20 -14
-14 -5 12 4 9 9 14 11 11 3 -2 0 -13 -6 -23z m-20 -50 c-12 -20 -14 -14 -5 12
4 9 9 14 11 11 3 -2 0 -13 -6 -23z m-30 -70 c-12 -20 -14 -14 -5 12 4 9 9 14
11 11 3 -2 0 -13 -6 -23z m-2136 -443 c10 -11 16 -20 13 -20 -3 0 -13 9 -23
20 -10 11 -16 20 -13 20 3 0 13 -9 23 -20z m40 -50 c10 -11 16 -20 13 -20 -3
0 -13 9 -23 20 -10 11 -16 20 -13 20 3 0 13 -9 23 -20z m36 -47 c13 -16 12
-17 -3 -4 -10 7 -18 15 -18 17 0 8 8 3 21 -13z"/>
<path d="M10521 4855 c-71 -20 -110 -45 -165 -106 -142 -158 -84 -403 117
-494 47 -22 73 -27 133 -27 224 1 379 212 309 423 -24 73 -118 168 -190 192
-73 25 -142 29 -204 12z"/>
<path d="M6035 3999 c-213 -29 -362 -94 -476 -208 -126 -126 -178 -274 -166
-468 12 -185 79 -308 218 -404 75 -51 129 -74 349 -148 102 -34 206 -75 232
-91 69 -43 103 -99 103 -169 0 -108 -65 -171 -204 -198 -77 -15 -94 -15 -237
0 -90 10 -209 31 -286 51 -73 19 -134 33 -135 32 -8 -8 -33 -420 -26 -426 4
-4 47 -17 94 -28 293 -72 607 -80 838 -21 42 11 118 40 170 65 224 109 341
306 341 574 0 206 -68 351 -213 454 -88 62 -126 79 -320 145 -215 73 -255 91
-301 131 -49 44 -66 79 -66 140 0 87 47 145 140 171 103 29 353 5 514 -51 33
-11 60 -19 62 -17 8 8 94 372 90 382 -4 12 -176 57 -286 75 -93 15 -353 21
-435 9z"/>
<path d="M11775 3999 c-190 -24 -368 -102 -474 -209 -114 -113 -161 -237 -161
-420 0 -180 36 -277 144 -386 87 -87 169 -129 401 -205 88 -28 183 -62 210
-74 131 -57 185 -164 136 -270 -42 -92 -133 -131 -306 -129 -123 2 -321 32
-451 70 -47 14 -87 24 -89 22 -8 -11 -36 -421 -29 -427 5 -5 50 -18 99 -30
240 -57 505 -75 693 -47 223 33 362 95 483 215 124 124 172 249 173 451 1 182
-47 304 -159 408 -83 78 -185 129 -405 202 -276 91 -342 140 -344 253 -1 88
51 151 148 179 96 28 332 5 504 -48 52 -16 74 -19 77 -11 3 7 24 94 48 194
l44 183 -51 14 c-224 65 -489 90 -691 65z"/>
<path d="M13445 3999 c-167 -22 -333 -88 -436 -172 -69 -56 -141 -161 -170
-247 -27 -80 -37 -266 -19 -353 31 -151 139 -282 293 -356 45 -22 154 -63 242
-92 258 -83 332 -131 354 -229 24 -106 -26 -184 -144 -226 -105 -38 -397 -14
-619 51 -49 14 -90 24 -92 23 -6 -7 -36 -408 -31 -421 5 -13 180 -57 307 -77
116 -18 339 -24 448 -11 361 42 581 195 664 461 19 62 23 97 23 205 0 155 -21
237 -86 333 -80 121 -188 185 -470 280 -188 64 -239 86 -287 127 -40 33 -66
103 -59 155 12 92 77 143 204 161 110 16 330 -15 472 -66 24 -8 45 -14 46 -13
2 4 95 376 95 382 0 10 -136 47 -244 67 -128 23 -385 33 -491 18z"/>
<path d="M17070 4004 c-19 -3 -73 -14 -119 -26 -390 -95 -664 -390 -752 -808
-17 -83 -22 -139 -22 -265 0 -299 61 -509 199 -692 172 -226 479 -347 839
-330 464 22 804 303 920 759 73 288 48 647 -60 884 -110 241 -309 398 -585
460 -64 15 -350 27 -420 18z m221 -454 c167 -32 280 -157 326 -360 25 -115 23
-370 -5 -473 -75 -275 -262 -416 -505 -380 -196 28 -316 153 -362 378 -25 119
-23 336 4 447 70 295 271 439 542 388z"/>
<path d="M19430 3994 c-154 -32 -333 -154 -426 -290 l-39 -56 -7 49 c-9 61
-28 106 -67 160 -57 79 -220 132 -358 118 l-63 -7 0 -1024 0 -1024 264 0 264
0 4 603 c4 576 5 605 26 679 45 166 123 273 240 330 60 30 75 33 157 33 140 0
209 -43 259 -162 20 -47 21 -66 24 -765 l3 -718 259 0 259 0 3 628 c3 575 5
632 22 682 58 175 152 279 288 322 164 50 313 -6 364 -138 18 -46 19 -95 24
-769 l5 -720 263 -3 263 -2 -4 797 c-3 721 -5 804 -20 863 -81 299 -297 443
-642 427 -173 -8 -284 -46 -422 -143 -68 -49 -144 -135 -176 -201 l-20 -42
-45 92 c-77 157 -192 246 -364 281 -93 19 -249 19 -338 0z"/>
<path d="M15320 3984 c-216 -36 -387 -121 -531 -264 -169 -167 -253 -352 -290
-635 -14 -109 -6 -358 16 -465 85 -424 345 -663 783 -721 124 -16 403 -6 512
19 94 22 186 55 215 76 18 13 18 19 -10 217 -15 112 -29 205 -31 207 -1 2 -34
-8 -72 -22 -153 -55 -370 -75 -493 -46 -243 57 -363 252 -363 590 0 342 121
540 371 605 115 30 336 14 477 -35 42 -14 58 -16 61 -7 21 61 105 401 102 411
-6 16 -133 51 -257 71 -118 19 -373 18 -490 -1z"/>
<path d="M6986 3933 c70 -404 273 -1120 500 -1766 46 -133 84 -242 84 -244 0
-2 125 -3 278 -3 l278 0 194 673 c167 580 210 720 210 684 0 -8 320 -1120 366
-1274 l25 -83 278 0 c257 0 279 1 284 18 3 9 35 100 72 202 165 459 375 1185
470 1620 19 91 38 175 40 188 l5 22 -257 -2 -257 -3 -174 -698 c-96 -384 -176
-696 -178 -694 -3 3 -404 1386 -404 1394 0 1 -119 3 -265 3 -146 0 -265 -2
-265 -5 0 -8 -410 -1399 -414 -1402 -2 -2 -61 229 -131 514 -70 285 -148 602
-173 706 l-47 187 -263 0 -263 0 7 -37z"/>
<path d="M10591 3954 c-110 -29 -187 -87 -231 -174 -50 -98 -50 -94 -50 -1007
l0 -853 260 0 260 0 0 1025 0 1025 -92 -1 c-51 0 -117 -7 -147 -15z"/>
</g>
</svg>
